<?xml version="1.0" encoding="utf-8"?>
<!-- Generator: Adobe Illustrator 16.0.0, SVG Export Plug-In . SVG Version: 6.00 Build 0)  -->
<!DOCTYPE svg PUBLIC "-//W3C//DTD SVG 1.1//EN" "http://www.w3.org/Graphics/SVG/1.1/DTD/svg11.dtd">
<svg version="1.1" id="Layer_1" xmlns="http://www.w3.org/2000/svg" xmlns:xlink="http://www.w3.org/1999/xlink" x="0px" y="0px"
	 width="75.63px" height="83.089px" viewBox="0 0 75.63 83.089" enable-background="new 0 0 75.63 83.089" xml:space="preserve">
<g>
	<defs>
		<rect id="SVGID_1_" width="75.63" height="83.089"/>
	</defs>
	<clipPath id="SVGID_2_">
		<use xlink:href="#SVGID_1_"  overflow="visible"/>
	</clipPath>
	<path clip-path="url(#SVGID_2_)" fill="#606060" d="M75.63,49.324v8.418c0,1.61-1.304,2.916-2.914,2.916h-6.478V46.409h6.478
		C74.325,46.409,75.63,47.714,75.63,49.324 M72.716,27.465h-6.478v14.248h6.478c1.61,0,2.914-1.305,2.914-2.914v-8.418
		C75.63,28.769,74.325,27.465,72.716,27.465 M72.716,8.521h-6.478v14.247h6.478c1.61,0,2.914-1.305,2.914-2.913v-8.42
		C75.63,9.826,74.325,8.521,72.716,8.521 M66.066,65.718h4.857v10.085c0,4.019-3.268,7.286-7.286,7.286H7.289
		c-4.018,0-7.286-3.268-7.286-7.286v-5.828C0.003,69.966,0,69.957,0,69.948V4.858C0,2.175,2.175,0,4.858,0h52.46
		c2.683,0,4.856,2.174,4.856,4.858v65.09c0,2.682-2.175,4.857-4.856,4.857H4.861v0.997c0,1.34,1.089,2.429,2.429,2.429h56.348
		c1.34,0,2.43-1.089,2.43-2.429L66.066,65.718L66.066,65.718z M32.041,38.901v0.003c0.02,0,0.04-0.001,0.06-0.001
		s0.04,0.001,0.06,0.001v-0.003c10.21-0.107,8.728-13.739,8.728-13.739c-0.418-9.108-8.038-9.032-8.787-9.002
		c-0.75-0.03-8.369-0.106-8.788,9.002C23.313,25.163,21.831,38.794,32.041,38.901 M13.44,52.267c0,0-0.041,2.783,0.407,3.912
		c0,0,6.846,4.45,18.313,4.45l0.022-0.259l-0.006,0.259c11.467,0,18.313-4.45,18.313-4.45c0.447-1.129,0.407-3.912,0.407-3.912
		l-0.017,0.004c0.142-2.001-0.026-6.051-3.533-6.942c-4.702-1.195-8.521-3.885-8.521-3.885l-3.54,11.197l-2.071-5.867
		c3.975-5.545-1.053-5.33-1.053-5.33s-5.027-0.216-1.053,5.33l-2.07,5.872l-3.542-11.202c0,0-3.82,2.69-8.522,3.885
		C13.469,46.219,13.299,50.264,13.44,52.267"/>
</g>
</svg>
