<?xml version="1.0" encoding="utf-8"?>
<!-- Generator: Adobe Illustrator 16.0.0, SVG Export Plug-In . SVG Version: 6.00 Build 0)  -->
<!DOCTYPE svg PUBLIC "-//W3C//DTD SVG 1.1//EN" "http://www.w3.org/Graphics/SVG/1.1/DTD/svg11.dtd">
<svg version="1.1" id="Layer_1" xmlns="http://www.w3.org/2000/svg" xmlns:xlink="http://www.w3.org/1999/xlink" x="0px" y="0px"
	 width="83.503px" height="69.026px" viewBox="0 0 83.503 69.026" enable-background="new 0 0 83.503 69.026" xml:space="preserve">
<g>
	<defs>
		<rect id="SVGID_1_" width="83.503" height="69.026"/>
	</defs>
	<clipPath id="SVGID_2_">
		<use xlink:href="#SVGID_1_"  overflow="visible"/>
	</clipPath>
	<path clip-path="url(#SVGID_2_)" fill="#666666" d="M73.05,47.965H22.59c-1.888,0-3.519-1.32-3.912-3.167L10.956,8.527L3.705,7.99
		C1.502,7.826-0.152,5.908,0.011,3.705c0.163-2.204,2.091-3.857,4.285-3.694L14.54,0.77c1.773,0.131,3.247,1.417,3.617,3.156
		l7.673,36.04h43.991l5.771-26.794c0.464-2.16,2.601-3.537,4.752-3.068c2.16,0.465,3.533,2.593,3.068,4.752l-6.45,29.951
		C76.563,46.65,74.936,47.965,73.05,47.965"/>
	<path clip-path="url(#SVGID_2_)" fill="#666666" d="M31.316,53.092c4.4,0,7.967,3.566,7.967,7.967c0,4.399-3.567,7.967-7.967,7.967
		c-4.4,0-7.967-3.567-7.967-7.967C23.349,56.659,26.916,53.092,31.316,53.092"/>
	<path clip-path="url(#SVGID_2_)" fill="#666666" d="M64.957,53.092c4.4,0,7.967,3.566,7.967,7.967c0,4.399-3.566,7.967-7.967,7.967
		s-7.967-3.567-7.967-7.967C56.99,56.659,60.557,53.092,64.957,53.092"/>
	<path clip-path="url(#SVGID_2_)" fill="#666666" d="M66.41,22.446H29.23c-2.209,0-4-1.791-4-4s1.791-4,4-4h37.181
		c2.209,0,4,1.791,4,4S68.619,22.446,66.41,22.446"/>
	<path clip-path="url(#SVGID_2_)" fill="#666666" d="M63.755,35.085h-31.87c-2.209,0-4-1.791-4-4s1.791-4,4-4h31.87
		c2.209,0,4,1.791,4,4S65.964,35.085,63.755,35.085"/>
</g>
</svg>
