<?xml version="1.0" encoding="utf-8"?>
<!-- Generator: Adobe Illustrator 16.0.0, SVG Export Plug-In . SVG Version: 6.00 Build 0)  -->
<!DOCTYPE svg PUBLIC "-//W3C//DTD SVG 1.1//EN" "http://www.w3.org/Graphics/SVG/1.1/DTD/svg11.dtd">
<svg version="1.1" id="Layer_1" xmlns="http://www.w3.org/2000/svg" xmlns:xlink="http://www.w3.org/1999/xlink" x="0px" y="0px"
	 width="18.588px" height="21px" viewBox="0 0 18.588 21" enable-background="new 0 0 18.588 21" xml:space="preserve">
<g>
	<defs>
		<rect id="SVGID_1_" width="18.588" height="21"/>
	</defs>
	<clipPath id="SVGID_2_">
		<use xlink:href="#SVGID_1_"  overflow="visible"/>
	</clipPath>
	<path clip-path="url(#SVGID_2_)" fill="#3B658C" d="M9.152,4.653C8.922,1.983,7.684,0,6.147,0C4.608,0,3.37,1.983,3.14,4.653H0.955
		L0,20.999h7.593L8.395,7.188h1.539c0.229-1.048,0.628-1.928,1.139-2.534L9.152,4.653L9.152,4.653z M4.102,4.653
		C4.31,2.434,5.271,0.954,6.147,0.954c0.873,0,1.835,1.479,2.042,3.699H4.102z"/>
	<path clip-path="url(#SVGID_2_)" fill="#FF7403" d="M17.788,7.979h-1.435c-0.043-0.274-0.095-0.539-0.16-0.792
		c-0.443-1.769-1.379-3.009-2.508-3.171c-0.083-0.012-0.169-0.019-0.255-0.019c-1.406,0-2.561,1.656-2.924,3.983H9.073L8.271,21
		h10.318L17.788,7.979z M11.476,7.979c0.048-0.279,0.109-0.544,0.181-0.792c0.385-1.346,1.072-2.191,1.721-2.234
		c0.017-0.002,0.036-0.002,0.053-0.002c0.782,0,1.635,1.188,1.954,3.028H11.476z"/>
</g>
</svg>
