<?xml version="1.0" encoding="utf-8"?>
<!-- Generator: Adobe Illustrator 16.0.0, SVG Export Plug-In . SVG Version: 6.00 Build 0)  -->
<!DOCTYPE svg PUBLIC "-//W3C//DTD SVG 1.1//EN" "http://www.w3.org/Graphics/SVG/1.1/DTD/svg11.dtd">
<svg version="1.1" id="Layer_1" xmlns="http://www.w3.org/2000/svg" xmlns:xlink="http://www.w3.org/1999/xlink" x="0px" y="0px"
	 width="94.609px" height="99.651px" viewBox="0 0 94.609 99.651" enable-background="new 0 0 94.609 99.651" xml:space="preserve">
<g>
	<defs>
		<rect id="SVGID_1_" width="94.609" height="99.651"/>
	</defs>
	<clipPath id="SVGID_2_">
		<use xlink:href="#SVGID_1_"  overflow="visible"/>
	</clipPath>
	<path clip-path="url(#SVGID_2_)" fill="#606060" d="M47.304,99.651C21.221,99.651,0,78.431,0,52.348
		c0-13.036,5.459-25.621,14.979-34.534c2.42-2.256,6.201-2.13,8.463,0.278c2.256,2.414,2.133,6.201-0.281,8.46
		c-7.218,6.756-11.192,15.917-11.192,25.797c0,19.484,15.85,35.335,35.334,35.335c19.485,0,35.335-15.851,35.335-35.335
		c0-9.658-3.828-18.681-10.776-25.402c-2.373-2.297-2.438-6.087-0.141-8.463c2.297-2.367,6.084-2.443,8.463-0.14
		c9.299,8.997,14.425,21.075,14.425,34.005C94.608,78.431,73.387,99.651,47.304,99.651"/>
	<path clip-path="url(#SVGID_2_)" fill="#606060" d="M47.304,51.19c-3.308,0-5.985-2.68-5.985-5.985V5.985
		C41.319,2.68,43.996,0,47.304,0c3.309,0,5.985,2.68,5.985,5.985v39.221C53.288,48.511,50.612,51.19,47.304,51.19"/>
</g>
</svg>
