<?xml version="1.0" encoding="utf-8"?>
<!-- Generator: Adobe Illustrator 16.0.0, SVG Export Plug-In . SVG Version: 6.00 Build 0)  -->
<!DOCTYPE svg PUBLIC "-//W3C//DTD SVG 1.1//EN" "http://www.w3.org/Graphics/SVG/1.1/DTD/svg11.dtd">
<svg version="1.1" id="Capa_1" xmlns="http://www.w3.org/2000/svg" xmlns:xlink="http://www.w3.org/1999/xlink" x="0px" y="0px"
	 width="500px" height="500px" viewBox="0 0 500 500" enable-background="new 0 0 500 500" xml:space="preserve">
<g>
	<g>
		<path d="M276.74,28.65h130.412c35.441,0,64.197,28.862,64.197,64.197v314.305c0,35.441-28.862,64.197-64.197,64.197H274.618
			c-7.958,0-14.325,6.367-14.325,14.325S266.66,500,274.618,500h132.534C458.404,500,500,458.298,500,407.152V92.848
			C500,41.596,458.298,0,407.152,0H276.74c-7.959,0-14.325,6.367-14.325,14.325S268.889,28.65,276.74,28.65z"/>
		<path d="M357.524,239.919l-91.044-91.044c-5.624-5.624-14.644-5.624-20.268,0c-5.624,5.624-5.624,14.644,0,20.268l66.639,66.639
			H22.21c-7.958,0-14.325,6.366-14.325,14.325s6.367,14.326,14.325,14.326h290.641l-66.639,66.639
			c-5.624,5.623-5.624,14.643,0,20.267c2.759,2.759,6.473,4.245,10.081,4.245c3.607,0,7.321-1.38,10.08-4.245l91.044-91.044
			C363.148,254.563,363.148,245.437,357.524,239.919z"/>
	</g>
</g>
</svg>
