<?xml version="1.0" encoding="utf-8"?>
<!-- Generator: Adobe Illustrator 16.0.0, SVG Export Plug-In . SVG Version: 6.00 Build 0)  -->
<!DOCTYPE svg PUBLIC "-//W3C//DTD SVG 1.1//EN" "http://www.w3.org/Graphics/SVG/1.1/DTD/svg11.dtd">
<svg version="1.1" id="Livello_1" xmlns="http://www.w3.org/2000/svg" xmlns:xlink="http://www.w3.org/1999/xlink" x="0px" y="0px"
	 width="14.5px" height="20px" viewBox="64.678 56.741 14.5 20" enable-background="new 64.678 56.741 14.5 20"
	 xml:space="preserve">
<g id="Livello_29">
	<path d="M76.069,74.545c0.509,0.509,0.51,1.335,0,1.844c-0.509,0.509-1.334,0.509-1.844,0c-0.003-0.003-0.005-0.006-0.008-0.009
		l-0.004,0.003l-8.635-8.636l0.003-0.003c-0.241-0.237-0.391-0.565-0.391-0.93c0-0.409,0.188-0.774,0.484-1.013l-0.009-0.008
		l8.636-8.636l0.004,0.004c0.002-0.003,0.005-0.006,0.008-0.009c0.509-0.509,1.334-0.509,1.844,0c0.509,0.509,0.509,1.334,0,1.844
		c-0.003,0.003-0.006,0.005-0.009,0.008l0.003,0.004l-7.806,7.807l7.719,7.719l-0.003,0.003
		C76.063,74.54,76.066,74.542,76.069,74.545"/>
</g>
<g id="Livello_1_1_">
</g>
</svg>
