<?xml version="1.0" encoding="utf-8"?>
<!-- Generator: Adobe Illustrator 16.0.0, SVG Export Plug-In . SVG Version: 6.00 Build 0)  -->
<!DOCTYPE svg PUBLIC "-//W3C//DTD SVG 1.1//EN" "http://www.w3.org/Graphics/SVG/1.1/DTD/svg11.dtd">
<svg version="1.1" id="Layer_1" xmlns="http://www.w3.org/2000/svg" xmlns:xlink="http://www.w3.org/1999/xlink" x="0px" y="0px"
	 width="25px" height="25px" viewBox="0 0 25 25" enable-background="new 0 0 25 25" xml:space="preserve">
<g>
	<g>
		<defs>
			<rect id="SVGID_1_" x="1.627" width="21.506" height="25"/>
		</defs>
		<clipPath id="SVGID_2_">
			<use xlink:href="#SVGID_1_"  overflow="visible"/>
		</clipPath>
		<path clip-path="url(#SVGID_2_)" d="M9.804,24.102H2.487V0.861h7.316c0.241,0,0.431-0.189,0.431-0.431
			c0-0.241-0.189-0.43-0.431-0.43H2.057c-0.241,0-0.43,0.189-0.43,0.43v24.101c0,0.241,0.189,0.431,0.43,0.431h7.747
			c0.241,0,0.431-0.189,0.431-0.431C10.234,24.291,10.036,24.102,9.804,24.102L9.804,24.102z M9.804,24.102"/>
		<path clip-path="url(#SVGID_2_)" d="M23.111,12.645c0.009-0.018,0.009-0.025,0.018-0.043c0-0.009,0.008-0.026,0.008-0.034
			c0.009-0.026,0.009-0.052,0.009-0.086c0-0.026,0-0.061-0.009-0.087c0-0.008-0.008-0.025-0.008-0.034
			c0-0.018-0.009-0.025-0.018-0.043s-0.018-0.025-0.025-0.043c-0.009-0.009-0.009-0.025-0.018-0.034
			c-0.018-0.026-0.034-0.043-0.052-0.069l-4.304-4.304c-0.172-0.172-0.439-0.172-0.611,0c-0.172,0.172-0.172,0.439,0,0.611
			l3.572,3.572H6.361c-0.241,0-0.43,0.189-0.43,0.431c0,0.24,0.189,0.43,0.43,0.43h15.313l-3.572,3.572
			c-0.172,0.172-0.172,0.439,0,0.611c0.086,0.086,0.198,0.129,0.302,0.129c0.103,0,0.224-0.043,0.301-0.129l4.304-4.304
			c0.018-0.018,0.035-0.043,0.052-0.069c0.009-0.008,0.009-0.017,0.018-0.034C23.094,12.67,23.103,12.662,23.111,12.645
			L23.111,12.645z M23.111,12.645"/>
	</g>
</g>
</svg>
