<?xml version="1.0" encoding="utf-8"?>
<!-- Generator: Adobe Illustrator 16.0.0, SVG Export Plug-In . SVG Version: 6.00 Build 0)  -->
<!DOCTYPE svg PUBLIC "-//W3C//DTD SVG 1.1//EN" "http://www.w3.org/Graphics/SVG/1.1/DTD/svg11.dtd">
<svg version="1.1" id="Layer_1" xmlns="http://www.w3.org/2000/svg" xmlns:xlink="http://www.w3.org/1999/xlink" x="0px" y="0px"
	 width="23px" height="23px" viewBox="0 0 23 23" enable-background="new 0 0 23 23" xml:space="preserve">
<g>
	<path d="M11.499,0.002C5.159,0.002,0,5.161,0,11.501C0,17.844,5.159,23,11.501,23C17.841,23,23,17.844,23,11.501
		C23,5.161,17.841,0.002,11.499,0.002L11.499,0.002z M8.356,9.315L8.38,9.289c0.093-0.067,0.139-0.173,0.122-0.285
		C8.27,7.609,8.423,7.028,8.474,6.883c0.404-1.241,1.667-1.834,1.922-1.918c0.364-0.117,1.323-0.158,2.531,0.304
		c0.911,0.347,1.325,0.844,1.404,0.947c0.749,0.847,0.547,2.126,0.363,2.813c-0.021,0.081-0.009,0.165,0.036,0.234l0.043,0.053
		c0.055,0.074,0.103,0.356-0.06,0.961c-0.031,0.182-0.098,0.333-0.198,0.433c-0.038,0.041-0.062,0.091-0.072,0.151
		c-0.253,1.48-1.581,3.14-2.979,3.14c-1.189,0-2.543-1.525-2.787-3.14C8.667,10.8,8.643,10.748,8.6,10.702
		c-0.103-0.105-0.167-0.256-0.206-0.48C8.278,9.798,8.265,9.456,8.356,9.315L8.356,9.315z M5.692,15.741
		c0.048-0.066,0.337-0.401,0.918-0.622c2.062-0.614,2.894-1.497,2.894-1.497l0.067,0.06c0.605,0.574,1.28,0.891,1.892,0.891
		c0.643,0,1.308-0.28,1.922-0.809l0.048-0.041c0,0,1.325,0.896,2.396,1.203c1.033,0.294,1.439,0.758,1.466,0.794
		c0.794,1.081,1.038,3.186,1.144,4.341c-1.957,1.591-4.42,2.466-6.938,2.466c-2.518,0-4.982-0.875-6.94-2.466
		C4.666,18.908,4.91,16.813,5.692,15.741L5.692,15.741z M17.774,15.401l-0.038-0.048c-0.187-0.231-0.593-0.573-1.196-0.789
		c-2.045-0.729-2.593-1.342-2.593-1.342l0.029-0.071c0.512-0.639,0.871-1.38,1.007-2.083l0.019-0.041
		c0.144-0.18,0.234-0.393,0.271-0.627c0.163-0.586,0.169-1.016,0.021-1.317l-0.012-0.031l0.007-0.033
		c0.182-0.758,0.356-2.184-0.517-3.174c-0.136-0.172-0.691-0.684-1.71-1.069c-1.047-0.396-1.995-0.571-2.868-0.304
		C9.891,4.565,8.406,5.24,7.938,6.694C7.859,6.899,7.699,7.528,7.904,8.906l0.007,0.038L7.888,8.976
		c-0.21,0.284-0.227,0.743-0.05,1.363c0.043,0.274,0.134,0.492,0.265,0.66l0.024,0.048c0.129,0.72,0.45,1.43,0.926,2.057
		l0.042,0.055c0,0-0.513,0.78-2.666,1.416c-0.844,0.32-0.995,0.528-1.203,0.83c-0.723,1.055-1.042,2.849-1.193,4.197
		c-2.262-2.086-3.554-5.032-3.554-8.101c0-6.077,4.943-11.022,11.023-11.022s11.025,4.945,11.025,11.022
		c0,3.068-1.296,6.018-3.559,8.105C18.813,18.245,18.482,16.451,17.774,15.401L17.774,15.401z M17.774,15.401"/>
</g>
</svg>
