<?xml version="1.0" encoding="utf-8"?>
<!-- Generator: Adobe Illustrator 16.0.0, SVG Export Plug-In . SVG Version: 6.00 Build 0)  -->
<!DOCTYPE svg PUBLIC "-//W3C//DTD SVG 1.1//EN" "http://www.w3.org/Graphics/SVG/1.1/DTD/svg11.dtd">
<svg version="1.1" id="Layer_1" xmlns="http://www.w3.org/2000/svg" xmlns:xlink="http://www.w3.org/1999/xlink" x="0px" y="0px"
	 width="41.001px" height="40.738px" viewBox="0 0 41.001 40.738" enable-background="new 0 0 41.001 40.738" xml:space="preserve">
<path d="M20.461,3.112l2.315,2.649l3.021-1.803l1.384,3.235l3.43-0.782l0.316,3.503l3.504,0.316L33.65,13.66l3.234,1.384
	l-1.805,3.02l2.649,2.316l-2.649,2.315l1.804,3.021l-3.234,1.384l0.782,3.43l-3.504,0.315l-0.316,3.504l-3.431-0.781l-1.383,3.234
	l-3.021-1.805l-2.315,2.65l-2.316-2.65l-3.02,1.805l-1.383-3.234l-3.43,0.781l-0.316-3.502l-3.504-0.317l0.782-3.43l-3.235-1.384
	l1.804-3.02L3.194,20.38l2.649-2.316l-1.804-3.02l3.235-1.384l-0.783-3.431l3.505-0.316l0.316-3.503l3.43,0.782l1.383-3.235
	l3.02,1.803L20.461,3.112z M20.461,0.418L17.785,3.48l-3.491-2.085l-1.6,3.74L8.729,4.231L8.363,8.282l-4.05,0.365l0.904,3.965
	l-3.74,1.599l2.086,3.492L0.5,20.38l3.063,2.676l-2.086,3.491l3.74,1.6l-0.905,3.965l4.051,0.366l0.366,4.05l3.965-0.903l1.6,3.739
	l3.491-2.086l2.676,3.063l2.677-3.063l3.492,2.086l1.599-3.739l3.966,0.903l0.365-4.05l4.05-0.366l-0.904-3.965l3.74-1.6
	l-2.085-3.491l3.063-2.676l-3.063-2.677l2.086-3.492l-3.74-1.599l0.904-3.965l-4.051-0.365l-0.365-4.051l-3.965,0.904l-1.6-3.74
	L23.137,3.48L20.461,0.418z"/>
<g>
	<path d="M11.848,16.603v6.058h-1.674v-3.97c-0.271,0.206-0.533,0.373-0.787,0.5c-0.253,0.127-0.571,0.249-0.953,0.366v-1.357
		c0.563-0.181,1.001-0.399,1.313-0.654c0.312-0.255,0.555-0.569,0.731-0.943H11.848z"/>
	<path d="M13.648,19.658c0-1.132,0.204-1.925,0.612-2.377s1.028-0.679,1.863-0.679c0.401,0,0.73,0.049,0.987,0.148
		s0.467,0.228,0.63,0.386c0.163,0.159,0.291,0.325,0.384,0.5c0.094,0.175,0.169,0.378,0.226,0.611
		c0.111,0.444,0.167,0.908,0.167,1.39c0,1.081-0.183,1.872-0.549,2.373c-0.366,0.502-0.996,0.752-1.889,0.752
		c-0.501,0-0.906-0.08-1.215-0.239c-0.309-0.16-0.562-0.395-0.76-0.703c-0.144-0.22-0.255-0.52-0.335-0.9
		C13.688,20.54,13.648,20.119,13.648,19.658z M15.29,19.662c0,0.758,0.067,1.277,0.201,1.554s0.329,0.416,0.583,0.416
		c0.168,0,0.313-0.059,0.437-0.177c0.123-0.117,0.214-0.304,0.272-0.559c0.059-0.255,0.087-0.651,0.087-1.19
		c0-0.791-0.067-1.323-0.201-1.595c-0.134-0.272-0.335-0.408-0.603-0.408c-0.274,0-0.472,0.139-0.593,0.417
		C15.351,18.398,15.29,18.912,15.29,19.662z"/>
	<path d="M19.198,19.658c0-1.132,0.204-1.925,0.611-2.377s1.029-0.679,1.863-0.679c0.401,0,0.729,0.049,0.988,0.148
		c0.257,0.099,0.467,0.228,0.629,0.386c0.163,0.159,0.291,0.325,0.385,0.5c0.093,0.175,0.168,0.378,0.225,0.611
		c0.111,0.444,0.167,0.908,0.167,1.39c0,1.081-0.183,1.872-0.549,2.373c-0.365,0.502-0.995,0.752-1.889,0.752
		c-0.501,0-0.906-0.08-1.215-0.239c-0.309-0.16-0.562-0.395-0.76-0.703c-0.144-0.22-0.255-0.52-0.335-0.9
		C19.238,20.54,19.198,20.119,19.198,19.658z M20.839,19.662c0,0.758,0.067,1.277,0.201,1.554c0.135,0.277,0.329,0.416,0.584,0.416
		c0.168,0,0.313-0.059,0.436-0.177c0.124-0.117,0.215-0.304,0.272-0.559c0.059-0.255,0.088-0.651,0.088-1.19
		c0-0.791-0.067-1.323-0.202-1.595c-0.133-0.272-0.335-0.408-0.603-0.408c-0.273,0-0.472,0.139-0.593,0.417
		C20.901,18.398,20.839,18.912,20.839,19.662z"/>
	<path d="M24.809,18.167c0-0.276,0.061-0.539,0.182-0.789c0.12-0.249,0.305-0.441,0.553-0.575c0.248-0.134,0.541-0.201,0.879-0.201
		c0.499,0,0.892,0.142,1.179,0.427c0.287,0.284,0.431,0.664,0.431,1.138c0,0.477-0.144,0.857-0.431,1.142s-0.68,0.427-1.179,0.427
		c-0.338,0-0.631-0.067-0.879-0.201s-0.433-0.326-0.553-0.575C24.87,18.71,24.809,18.446,24.809,18.167z M25.952,18.175
		c0,0.335,0.054,0.58,0.162,0.731c0.07,0.1,0.174,0.15,0.309,0.15c0.136,0,0.237-0.05,0.305-0.15
		c0.108-0.151,0.163-0.396,0.163-0.731c0-0.333-0.055-0.577-0.163-0.731c-0.067-0.098-0.169-0.146-0.305-0.146
		c-0.135,0-0.238,0.049-0.309,0.146C26.005,17.595,25.952,17.839,25.952,18.175z M29.867,16.603h0.858l-3.44,6.363h-0.85
		L29.867,16.603z M29.104,21.389c0-0.279,0.06-0.543,0.179-0.79c0.12-0.248,0.304-0.44,0.553-0.575
		c0.25-0.136,0.542-0.203,0.878-0.203c0.501,0,0.896,0.143,1.183,0.429s0.431,0.665,0.431,1.14c0,0.474-0.144,0.854-0.431,1.14
		c-0.287,0.285-0.682,0.429-1.183,0.429c-0.336,0-0.628-0.067-0.878-0.203c-0.249-0.136-0.433-0.327-0.553-0.575
		C29.164,21.931,29.104,21.667,29.104,21.389z M30.246,21.397c0,0.336,0.055,0.58,0.163,0.731c0.067,0.098,0.169,0.146,0.305,0.146
		s0.238-0.049,0.309-0.146c0.108-0.151,0.163-0.396,0.163-0.731s-0.055-0.581-0.163-0.735c-0.07-0.098-0.173-0.146-0.309-0.146
		s-0.237,0.051-0.305,0.15C30.3,20.818,30.246,21.061,30.246,21.397z"/>
</g>
</svg>
