<?xml version="1.0" encoding="utf-8"?>
<!-- Generator: Adobe Illustrator 16.0.0, SVG Export Plug-In . SVG Version: 6.00 Build 0)  -->
<!DOCTYPE svg PUBLIC "-//W3C//DTD SVG 1.1//EN" "http://www.w3.org/Graphics/SVG/1.1/DTD/svg11.dtd">
<svg version="1.1" id="Layer_1" xmlns="http://www.w3.org/2000/svg" xmlns:xlink="http://www.w3.org/1999/xlink" x="0px" y="0px"
	 width="310.167px" height="71.15px" viewBox="0 0 310.167 71.15" enable-background="new 0 0 310.167 71.15" xml:space="preserve">
<g>
	<path fill-rule="evenodd" clip-rule="evenodd" fill="#232322" d="M27.545,20.605c0-0.844-0.077-1.561-0.255-2.149
		c-0.18-0.614-0.486-1.101-0.896-1.51c-0.409-0.384-0.947-0.665-1.612-0.845c-0.665-0.205-1.484-0.307-2.482-0.307h-1.536v9.928
		h1.638c0.973,0,1.792-0.128,2.457-0.358c0.666-0.23,1.203-0.563,1.587-0.998c0.41-0.435,0.69-0.972,0.87-1.612
		C27.469,22.115,27.545,21.398,27.545,20.605L27.545,20.605z M20.764,27.13v6.961l3.327,0.435v0.819h-8.803v-0.819l2.482-0.435
		v-18.45l-2.687-0.409v-0.819h7.907c1.458,0,2.687,0.153,3.659,0.46c0.998,0.333,1.766,0.768,2.38,1.305
		c0.588,0.563,0.998,1.229,1.254,1.971c0.255,0.742,0.358,1.561,0.358,2.406c0,0.87-0.103,1.688-0.358,2.482
		c-0.23,0.793-0.64,1.484-1.229,2.098c-0.588,0.588-1.356,1.075-2.329,1.433c-0.947,0.384-2.149,0.563-3.583,0.563H20.764z"/>
	<path fill-rule="evenodd" clip-rule="evenodd" fill="#232322" d="M61.963,20.221c0-0.845-0.102-1.535-0.307-2.098
		c-0.205-0.563-0.512-1.024-0.921-1.356c-0.435-0.358-0.972-0.589-1.638-0.742s-1.458-0.23-2.406-0.23h-2.661v8.956h2.763
		c0.947,0,1.766-0.077,2.431-0.256c0.64-0.179,1.178-0.435,1.587-0.819c0.41-0.358,0.691-0.819,0.87-1.408
		C61.861,21.706,61.963,21.015,61.963,20.221L61.963,20.221z M54.031,26.158v7.933l3.173,0.435v0.819h-8.675v-0.819l2.482-0.435
		v-18.45l-2.687-0.409v-0.819h9.059c1.458,0,2.687,0.128,3.659,0.384c0.998,0.256,1.766,0.614,2.379,1.1
		c0.589,0.486,0.998,1.075,1.254,1.766c0.255,0.69,0.384,1.458,0.384,2.328c0,0.793-0.128,1.51-0.358,2.15
		c-0.23,0.639-0.537,1.177-0.947,1.663c-0.384,0.486-0.845,0.87-1.382,1.203c-0.512,0.307-1.049,0.563-1.612,0.716l5.655,8.368
		l2.277,0.435v0.819h-5.015l-5.886-9.187H54.031z"/>
	<path fill-rule="evenodd" clip-rule="evenodd" fill="#232322" d="M125.4,35.345v-0.819l3.327-0.435V15.743h-0.793
		c-1.356,0-2.508,0.026-3.429,0.103c-0.947,0.051-1.586,0.127-1.97,0.204l-0.435,3.276h-1.049v-4.913h18.424v4.913h-1.074
		l-0.41-3.276c-0.179-0.025-0.46-0.077-0.845-0.102c-0.358-0.025-0.793-0.051-1.279-0.077c-0.486-0.025-1.024-0.051-1.587-0.077
		c-0.588-0.025-1.177-0.025-1.791-0.025h-0.742v18.322l3.301,0.435v0.819H125.4z"/>
	<path fill-rule="evenodd" clip-rule="evenodd" fill="#AEAEAF" d="M201.4,24.853c0-1.842,0.204-3.455,0.665-4.785
		c0.461-1.356,1.126-2.457,1.971-3.327c0.87-0.87,1.944-1.536,3.198-1.945c1.279-0.41,2.738-0.614,4.376-0.614
		c1.586,0,3.02,0.205,4.299,0.614c1.254,0.409,2.329,1.075,3.198,1.945c0.896,0.87,1.562,1.97,2.048,3.327
		c0.46,1.33,0.69,2.943,0.69,4.785c0,1.842-0.23,3.455-0.69,4.811c-0.486,1.356-1.152,2.482-2.048,3.378
		c-0.869,0.87-1.944,1.535-3.198,1.97c-1.279,0.435-2.713,0.64-4.299,0.64c-1.587,0-3.021-0.205-4.273-0.64
		c-1.254-0.435-2.328-1.1-3.198-1.97c-0.896-0.896-1.562-2.022-2.047-3.378C201.63,28.308,201.4,26.695,201.4,24.853L201.4,24.853z
		 M204.649,24.853c0,1.458,0.129,2.763,0.333,3.94c0.23,1.177,0.589,2.175,1.126,3.02c0.537,0.819,1.229,1.458,2.124,1.919
		c0.896,0.46,2.021,0.691,3.378,0.691s2.481-0.23,3.378-0.691c0.896-0.461,1.612-1.101,2.148-1.919
		c0.538-0.845,0.922-1.842,1.127-3.02c0.23-1.177,0.332-2.482,0.332-3.94s-0.102-2.764-0.332-3.916
		c-0.205-1.177-0.589-2.175-1.127-2.968c-0.536-0.818-1.253-1.458-2.148-1.894c-0.896-0.435-2.021-0.665-3.378-0.665
		s-2.482,0.23-3.378,0.665s-1.587,1.075-2.124,1.894c-0.537,0.793-0.896,1.792-1.126,2.968
		C204.778,22.089,204.649,23.395,204.649,24.853L204.649,24.853z"/>
	<polygon fill-rule="evenodd" clip-rule="evenodd" fill="#AEAEAF" points="169.67,35.345 169.132,35.345 161.455,17.355 
		161.455,34.091 164.27,34.526 164.27,35.345 157.156,35.345 157.156,34.526 159.843,34.091 159.843,15.641 157.156,15.231 
		157.156,14.413 163.477,14.413 170.283,30.329 177.704,14.413 183.718,14.413 183.718,15.231 181.031,15.641 181.031,34.091 
		183.718,34.526 183.718,35.345 175.223,35.345 175.223,34.526 178.011,34.091 178.011,17.355 	"/>
	<path fill-rule="evenodd" clip-rule="evenodd" fill="#AEAEAF" d="M257.135,24.725c0-1.535-0.205-2.866-0.64-3.992
		c-0.41-1.125-1.023-2.047-1.817-2.764c-0.793-0.742-1.766-1.28-2.891-1.638c-1.127-0.358-2.381-0.537-3.762-0.537h-2.815v18.091
		c0.332,0,0.665,0.026,1.023,0.026c0.358,0.025,0.742,0.025,1.126,0.051c0.384,0,0.768,0.025,1.177,0.025c0.385,0,0.768,0,1.126,0
		c1.331,0,2.457-0.179,3.403-0.588c0.947-0.384,1.715-0.973,2.329-1.74c0.589-0.768,1.05-1.74,1.331-2.892
		C257.007,27.616,257.135,26.26,257.135,24.725L257.135,24.725z M249.049,14.413c1.714,0,3.3,0.179,4.683,0.537
		c1.407,0.358,2.609,0.947,3.582,1.792c0.999,0.818,1.766,1.868,2.277,3.198c0.537,1.305,0.819,2.917,0.819,4.811
		c0,1.714-0.23,3.224-0.666,4.555c-0.435,1.305-1.1,2.431-1.97,3.327c-0.896,0.921-1.996,1.586-3.353,2.073
		c-1.356,0.46-2.917,0.691-4.733,0.691c-0.614,0-1.255,0-1.945,0c-0.716,0-1.407-0.026-2.073-0.026c-0.689,0-1.33-0.025-1.944-0.025
		c-0.588,0-1.101,0-1.51,0h-2.687v-0.819l2.687-0.435v-18.45l-2.687-0.409v-0.819H249.049z"/>
	<path fill-rule="evenodd" clip-rule="evenodd" fill="#AEAEAF" d="M278.092,34.526l2.688-0.435v-18.45l-2.688-0.409v-0.819h15.687
		v5.015h-1.023l-0.512-3.403c-0.332-0.051-0.717-0.077-1.202-0.102c-0.462-0.026-0.947-0.051-1.434-0.077
		c-0.486-0.026-0.973-0.026-1.407-0.026c-0.436-0.025-0.768-0.025-0.998-0.025h-3.43v8.188h5.655l0.487-2.482h0.998v6.422h-0.998
		l-0.487-2.533h-5.655v8.547h4.12c0.64,0,1.254,0,1.843-0.025c0.563-0.026,1.075-0.026,1.535-0.052
		c0.46-0.025,0.845-0.051,1.177-0.077c0.334-0.025,0.563-0.077,0.717-0.102l0.896-3.864h1.024l-0.281,5.527h-16.711V34.526z"/>
	<path fill-rule="evenodd" clip-rule="evenodd" fill="#232322" d="M86.375,34.526l2.687-0.435v-18.45l-2.687-0.409v-0.819h15.687
		v5.015h-1.023l-0.512-3.403c-0.333-0.051-0.717-0.077-1.203-0.102c-0.46-0.026-0.947-0.051-1.433-0.077
		c-0.486-0.026-0.972-0.026-1.407-0.026c-0.435-0.025-0.768-0.025-0.998-0.025h-3.429v8.188h5.655l0.486-2.482h0.998v6.422h-0.998
		l-0.486-2.533h-5.655v8.547h4.12c0.665,0,1.253,0,1.842-0.025c0.563-0.026,1.075-0.026,1.535-0.052
		c0.461-0.025,0.845-0.051,1.177-0.077c0.333-0.025,0.563-0.077,0.716-0.102l0.896-3.864h1.023l-0.282,5.527h-16.71V34.526z"/>
	<polygon fill="#232322" points="89.396,10.728 94.872,3.46 100.347,10.728 98.761,10.728 94.872,8.066 90.982,10.728 	"/>
	<path fill-rule="evenodd" clip-rule="evenodd" fill="#131414" d="M54.978,55.944c-0.077,0.025-0.18,0.051-0.358,0.102
		c-0.154,0.052-0.256,0.104-0.333,0.154c-0.179,0.103-0.281,0.18-0.358,0.256c-0.051,0.052-0.179,0.205-0.358,0.435
		c-0.333,0.487-0.64,0.973-0.921,1.459c-0.308,0.486-0.666,1.126-1.075,1.868c-0.179,0.281-0.281,0.512-0.333,0.691
		c-0.051,0.153-0.077,0.409-0.077,0.741v1.766c0,0.153,0.025,0.281,0.103,0.41c0.051,0.103,0.153,0.204,0.307,0.281
		c0.103,0.025,0.256,0.077,0.486,0.128c0.256,0.051,0.435,0.076,0.589,0.076v0.462h-4.35v-0.462c0.127,0,0.307-0.025,0.537-0.051
		c0.256-0.025,0.435-0.051,0.512-0.103c0.153-0.051,0.281-0.153,0.333-0.255c0.051-0.128,0.077-0.257,0.077-0.436v-2.252
		c0-0.077-0.026-0.179-0.128-0.385c-0.077-0.179-0.179-0.383-0.281-0.613c-0.282-0.512-0.563-1.049-0.87-1.638
		c-0.333-0.589-0.614-1.101-0.845-1.51c-0.153-0.256-0.281-0.436-0.384-0.563c-0.102-0.128-0.23-0.23-0.383-0.333
		c-0.103-0.077-0.23-0.129-0.384-0.154c-0.127-0.025-0.256-0.051-0.384-0.076v-0.461h3.966v0.461
		c-0.435,0.025-0.768,0.051-0.947,0.102c-0.179,0.052-0.281,0.129-0.281,0.231c0,0.025,0.025,0.076,0.051,0.128
		c0.025,0.076,0.051,0.153,0.102,0.256c0.051,0.102,0.128,0.229,0.205,0.383c0.077,0.154,0.154,0.282,0.23,0.436
		c0.205,0.384,0.41,0.769,0.614,1.151c0.205,0.385,0.486,0.87,0.844,1.511c0.665-1.101,1.203-1.971,1.561-2.585
		s0.537-0.998,0.537-1.101s-0.025-0.179-0.102-0.256c-0.077-0.051-0.179-0.103-0.307-0.128c-0.128-0.052-0.256-0.077-0.409-0.077
		c-0.154-0.025-0.282-0.025-0.41-0.051v-0.461h3.225V55.944z M63.908,61.497c0,0.461-0.077,0.896-0.23,1.331
		c-0.128,0.435-0.333,0.818-0.615,1.126c-0.307,0.332-0.639,0.588-1.049,0.768c-0.384,0.179-0.845,0.256-1.331,0.256
		c-0.409,0-0.793-0.077-1.177-0.23c-0.358-0.154-0.69-0.384-0.998-0.665c-0.282-0.307-0.512-0.666-0.666-1.075
		c-0.179-0.436-0.256-0.896-0.256-1.407c0-1.023,0.307-1.843,0.896-2.481c0.563-0.641,1.356-0.973,2.303-0.973
		c0.896,0,1.638,0.307,2.226,0.921C63.602,59.679,63.908,60.473,63.908,61.497L63.908,61.497z M62.552,61.497
		c0-0.307-0.025-0.666-0.102-1.023c-0.077-0.358-0.153-0.666-0.307-0.921c-0.128-0.281-0.307-0.486-0.538-0.666
		c-0.23-0.153-0.512-0.23-0.844-0.23c-0.333,0-0.615,0.077-0.845,0.23c-0.256,0.18-0.435,0.41-0.588,0.691
		c-0.154,0.256-0.23,0.563-0.307,0.921c-0.051,0.332-0.077,0.666-0.077,0.973c0,0.41,0.025,0.818,0.102,1.151
		c0.077,0.358,0.179,0.691,0.333,0.973c0.127,0.281,0.332,0.486,0.563,0.64c0.205,0.179,0.486,0.256,0.819,0.256
		c0.563,0,0.998-0.281,1.305-0.794C62.398,63.16,62.552,62.444,62.552,61.497L62.552,61.497z M74.247,64.644l-2.124,0.154
		l-0.103-0.077v-0.818h-0.025c-0.103,0.102-0.23,0.229-0.358,0.332c-0.128,0.128-0.281,0.256-0.46,0.357
		c-0.179,0.104-0.384,0.206-0.563,0.257s-0.435,0.077-0.768,0.077c-0.563,0-0.998-0.18-1.305-0.538
		c-0.282-0.384-0.435-0.921-0.435-1.638v-3.097c0-0.153-0.025-0.281-0.102-0.383c-0.051-0.103-0.128-0.205-0.256-0.281
		c-0.077-0.053-0.179-0.104-0.281-0.104c-0.128-0.025-0.256-0.051-0.384-0.051v-0.435l2.149-0.153l0.103,0.102v4.479
		c0,0.46,0.102,0.818,0.307,1.049c0.205,0.23,0.461,0.358,0.742,0.358c0.256,0,0.461-0.051,0.64-0.128
		c0.205-0.077,0.358-0.153,0.486-0.256c0.102-0.076,0.205-0.18,0.307-0.282c0.077-0.102,0.153-0.204,0.205-0.281v-3.659
		c0-0.153-0.025-0.281-0.102-0.384c-0.051-0.127-0.153-0.204-0.256-0.308c-0.077-0.051-0.179-0.076-0.358-0.076
		c-0.154-0.025-0.307-0.025-0.512-0.025v-0.435l2.354-0.153l0.102,0.102v5.118c0,0.128,0.025,0.255,0.102,0.358
		c0.051,0.103,0.128,0.204,0.256,0.281c0.077,0.051,0.154,0.077,0.282,0.103c0.102,0,0.23,0.025,0.358,0.025V64.644z M82.486,59.143
		c0,0.229-0.077,0.409-0.179,0.588c-0.103,0.18-0.282,0.257-0.512,0.257c-0.23,0-0.41-0.053-0.538-0.181s-0.205-0.281-0.205-0.409
		c0-0.102,0-0.204,0.025-0.28c0-0.077,0.026-0.154,0.051-0.231c-0.205,0-0.46,0.077-0.716,0.257
		c-0.282,0.153-0.512,0.409-0.691,0.69v3.787c0,0.154,0.025,0.282,0.077,0.358c0.051,0.103,0.154,0.179,0.281,0.23
		c0.103,0.025,0.256,0.076,0.41,0.102c0.179,0,0.333,0.026,0.46,0.026v0.436h-3.429v-0.436c0.102,0,0.205,0,0.307-0.026
		c0.128,0,0.205-0.025,0.282-0.051c0.128-0.025,0.23-0.103,0.281-0.204c0.052-0.103,0.077-0.205,0.077-0.385v-3.966
		c0-0.128-0.025-0.281-0.077-0.409c-0.077-0.128-0.153-0.23-0.281-0.307c-0.077-0.053-0.179-0.104-0.282-0.104
		c-0.127-0.025-0.23-0.051-0.358-0.051v-0.435l2.149-0.153l0.103,0.102v0.896h0.025c0.256-0.358,0.563-0.64,0.896-0.818
		c0.333-0.179,0.64-0.281,0.896-0.281c0.281,0,0.512,0.103,0.665,0.281C82.384,58.605,82.486,58.835,82.486,59.143L82.486,59.143z
		 M97.584,59.091c0.256,0.307,0.46,0.665,0.614,1.075c0.127,0.409,0.204,0.87,0.204,1.381c0,0.513-0.077,0.973-0.255,1.383
		c-0.179,0.435-0.384,0.792-0.666,1.074c-0.307,0.307-0.614,0.537-0.973,0.717c-0.358,0.153-0.742,0.23-1.151,0.23
		c-0.384,0-0.69-0.052-0.947-0.128c-0.23-0.103-0.435-0.18-0.588-0.308h-0.051v1.944c0,0.153,0.026,0.282,0.077,0.385
		c0.077,0.103,0.153,0.179,0.281,0.23c0.103,0.051,0.256,0.076,0.461,0.127c0.179,0.026,0.333,0.052,0.46,0.052v0.436h-3.608v-0.436
		c0.128,0,0.256-0.025,0.384-0.025c0.127-0.026,0.255-0.052,0.358-0.077c0.128-0.025,0.205-0.103,0.256-0.23
		c0.051-0.102,0.077-0.229,0.077-0.384v-6.858c0-0.127-0.025-0.255-0.077-0.383c-0.077-0.128-0.153-0.23-0.256-0.307
		c-0.077-0.053-0.205-0.078-0.333-0.104c-0.154-0.025-0.282-0.051-0.41-0.051v-0.435l2.201-0.153l0.103,0.076v0.742h0.051
		c0.23-0.257,0.512-0.486,0.844-0.64c0.333-0.179,0.666-0.281,0.998-0.281c0.409,0,0.768,0.103,1.1,0.256
		C97.072,58.58,97.354,58.809,97.584,59.091L97.584,59.091z M96.535,63.722c0.179-0.255,0.307-0.588,0.384-0.946
		s0.128-0.741,0.128-1.202c0-0.308-0.026-0.64-0.103-0.973c-0.077-0.332-0.179-0.64-0.332-0.896
		c-0.154-0.23-0.333-0.435-0.589-0.614c-0.23-0.154-0.512-0.23-0.844-0.23c-0.333,0-0.615,0.076-0.819,0.205
		c-0.231,0.153-0.435,0.332-0.589,0.512v3.838c0.026,0.103,0.103,0.23,0.179,0.359c0.102,0.128,0.205,0.229,0.307,0.332
		c0.128,0.103,0.281,0.204,0.435,0.256c0.153,0.076,0.333,0.103,0.563,0.103c0.256,0,0.486-0.052,0.716-0.18
		C96.202,64.158,96.381,63.954,96.535,63.722L96.535,63.722z M106.796,59.143c0,0.229-0.051,0.409-0.153,0.588
		c-0.128,0.18-0.282,0.257-0.512,0.257c-0.256,0-0.435-0.053-0.563-0.181c-0.127-0.128-0.204-0.281-0.204-0.409
		c0-0.102,0.025-0.204,0.025-0.28c0.025-0.077,0.051-0.154,0.051-0.231c-0.205,0-0.435,0.077-0.716,0.257
		c-0.256,0.153-0.486,0.409-0.691,0.69v3.787c0,0.154,0.026,0.282,0.103,0.358c0.051,0.103,0.128,0.179,0.256,0.23
		c0.128,0.025,0.256,0.076,0.435,0.102c0.179,0,0.307,0.026,0.435,0.026v0.436h-3.403v-0.436c0.103,0,0.205,0,0.307-0.026
		c0.103,0,0.205-0.025,0.282-0.051c0.128-0.025,0.205-0.103,0.256-0.204c0.077-0.103,0.103-0.205,0.103-0.385v-3.966
		c0-0.128-0.025-0.281-0.103-0.409c-0.051-0.128-0.153-0.23-0.256-0.307c-0.077-0.053-0.179-0.104-0.307-0.104
		c-0.102-0.025-0.23-0.051-0.358-0.051v-0.435l2.175-0.153l0.077,0.102v0.896h0.026c0.281-0.358,0.588-0.64,0.921-0.818
		c0.307-0.179,0.614-0.281,0.896-0.281c0.281,0,0.486,0.103,0.665,0.281S106.796,58.835,106.796,59.143L106.796,59.143z
		 M115.573,63.262c-0.281,0.513-0.64,0.922-1.101,1.229c-0.435,0.308-0.972,0.461-1.561,0.461c-0.512,0-0.973-0.103-1.356-0.282
		c-0.41-0.179-0.717-0.435-0.972-0.741c-0.256-0.308-0.435-0.666-0.563-1.101c-0.128-0.41-0.205-0.845-0.205-1.331
		c0-0.409,0.077-0.819,0.205-1.228c0.128-0.385,0.332-0.769,0.588-1.075c0.256-0.308,0.563-0.563,0.921-0.768
		c0.384-0.179,0.793-0.281,1.253-0.281c0.46,0,0.87,0.076,1.203,0.229c0.358,0.154,0.614,0.358,0.819,0.615
		c0.205,0.229,0.358,0.536,0.46,0.869s0.153,0.69,0.153,1.075v0.435h-4.299c0,0.409,0.051,0.794,0.128,1.151
		c0.077,0.333,0.205,0.64,0.384,0.896c0.179,0.256,0.384,0.461,0.665,0.614c0.282,0.128,0.615,0.205,0.999,0.205
		c0.383,0,0.716-0.077,0.998-0.281c0.281-0.179,0.563-0.486,0.818-0.973L115.573,63.262z M114.114,60.805
		c0-0.229-0.025-0.511-0.051-0.767c-0.051-0.282-0.128-0.513-0.205-0.717c-0.103-0.204-0.256-0.358-0.41-0.486
		c-0.179-0.128-0.409-0.18-0.691-0.18c-0.461,0-0.844,0.18-1.126,0.563c-0.307,0.384-0.486,0.922-0.512,1.586H114.114z
		 M122.815,61.727H118.9v-1.023h3.915V61.727z M129.341,64.773h-3.147v-0.436c0.102,0,0.205,0,0.333-0.026
		c0.102,0,0.205-0.025,0.282-0.051c0.102-0.025,0.204-0.103,0.255-0.204c0.077-0.103,0.103-0.205,0.103-0.385V56.2
		c0-0.154-0.026-0.308-0.103-0.436c-0.077-0.127-0.153-0.255-0.255-0.332c-0.077-0.051-0.231-0.103-0.435-0.128
		c-0.205-0.051-0.384-0.076-0.512-0.076v-0.436l2.457-0.153l0.077,0.102v8.854c0,0.153,0.026,0.281,0.103,0.384
		c0.051,0.103,0.128,0.179,0.256,0.23c0.103,0.025,0.179,0.076,0.281,0.102c0.103,0,0.205,0.026,0.308,0.026V64.773z
		 M138.962,61.497c0,0.461-0.077,0.896-0.23,1.331c-0.128,0.435-0.333,0.818-0.614,1.126c-0.308,0.332-0.64,0.588-1.05,0.768
		c-0.384,0.179-0.844,0.256-1.331,0.256c-0.409,0-0.818-0.077-1.177-0.23c-0.384-0.154-0.691-0.384-0.998-0.665
		c-0.282-0.307-0.512-0.666-0.665-1.075c-0.18-0.436-0.256-0.896-0.256-1.407c0-1.023,0.282-1.843,0.87-2.481
		c0.588-0.641,1.356-0.973,2.329-0.973c0.896,0,1.638,0.307,2.226,0.921C138.655,59.679,138.962,60.473,138.962,61.497
		L138.962,61.497z M137.606,61.497c0-0.307-0.051-0.666-0.103-1.023c-0.077-0.358-0.179-0.666-0.307-0.921
		c-0.128-0.281-0.307-0.486-0.538-0.666c-0.23-0.153-0.512-0.23-0.844-0.23c-0.333,0-0.615,0.077-0.87,0.23
		c-0.23,0.18-0.41,0.41-0.563,0.691c-0.154,0.256-0.256,0.563-0.307,0.921c-0.051,0.332-0.077,0.666-0.077,0.973
		c0,0.41,0.025,0.818,0.102,1.151c0.051,0.358,0.179,0.691,0.307,0.973c0.154,0.281,0.358,0.486,0.563,0.64
		c0.23,0.179,0.512,0.256,0.845,0.256c0.563,0,0.972-0.281,1.305-0.794C137.427,63.16,137.606,62.444,137.606,61.497L137.606,61.497
		z M148.763,58.733c-0.205,0.025-0.384,0.103-0.563,0.204c-0.18,0.104-0.333,0.308-0.46,0.563c-0.256,0.589-0.538,1.203-0.793,1.817
		c-0.282,0.64-0.563,1.305-0.87,2.021c-0.077,0.179-0.179,0.436-0.281,0.69c-0.077,0.281-0.18,0.537-0.256,0.794h-0.512
		c-0.41-1.023-0.793-1.945-1.151-2.789c-0.358-0.845-0.717-1.715-1.075-2.585c-0.102-0.205-0.23-0.358-0.435-0.486
		c-0.179-0.103-0.383-0.18-0.588-0.205v-0.435h2.994v0.46c-0.128,0-0.307,0.025-0.486,0.077c-0.205,0.051-0.307,0.129-0.307,0.205
		c0,0.025,0.025,0.052,0.051,0.103c0,0.051,0.026,0.128,0.051,0.179c0.179,0.46,0.435,1.075,0.768,1.868
		c0.332,0.793,0.588,1.433,0.793,1.894c0.154-0.358,0.358-0.819,0.588-1.382c0.23-0.537,0.486-1.178,0.768-1.843
		c0.051-0.128,0.077-0.23,0.128-0.332c0.025-0.103,0.051-0.205,0.051-0.308c0-0.076-0.026-0.153-0.103-0.204
		s-0.153-0.104-0.255-0.154c-0.103-0.051-0.205-0.077-0.307-0.103c-0.077-0.025-0.154-0.025-0.23-0.051v-0.409h2.482V58.733z
		 M157.259,63.262c-0.257,0.513-0.64,0.922-1.074,1.229c-0.461,0.308-0.999,0.461-1.587,0.461c-0.512,0-0.972-0.103-1.356-0.282
		c-0.41-0.179-0.716-0.435-0.973-0.741c-0.255-0.308-0.435-0.666-0.563-1.101c-0.127-0.41-0.205-0.845-0.205-1.331
		c0-0.409,0.077-0.819,0.205-1.228c0.128-0.385,0.333-0.769,0.588-1.075c0.256-0.308,0.563-0.563,0.921-0.768
		c0.384-0.179,0.793-0.281,1.254-0.281c0.46,0,0.87,0.076,1.202,0.229c0.359,0.154,0.614,0.358,0.845,0.615
		c0.179,0.229,0.332,0.536,0.435,0.869c0.104,0.333,0.154,0.69,0.154,1.075v0.435h-4.299c0,0.409,0.051,0.794,0.127,1.151
		c0.077,0.333,0.205,0.64,0.384,0.896s0.384,0.461,0.666,0.614c0.281,0.128,0.614,0.205,0.998,0.205
		c0.384,0,0.716-0.077,0.997-0.281c0.282-0.179,0.563-0.486,0.819-0.973L157.259,63.262z M155.8,60.805
		c0-0.229-0.025-0.511-0.051-0.767c-0.051-0.282-0.128-0.513-0.205-0.717c-0.102-0.204-0.255-0.358-0.409-0.486
		c-0.18-0.128-0.41-0.18-0.691-0.18c-0.46,0-0.844,0.18-1.126,0.563c-0.307,0.384-0.486,0.922-0.512,1.586H155.8z M167.571,64.644
		l-2.277,0.154l-0.103-0.077v-0.614h-0.052c-0.204,0.256-0.485,0.46-0.818,0.614c-0.333,0.153-0.691,0.256-1.049,0.256
		c-0.358,0-0.717-0.103-1.05-0.256c-0.357-0.154-0.64-0.384-0.896-0.691s-0.46-0.665-0.614-1.074
		c-0.153-0.436-0.23-0.896-0.23-1.408c0-0.46,0.077-0.921,0.256-1.33c0.154-0.41,0.385-0.793,0.666-1.1
		c0.255-0.282,0.589-0.538,0.972-0.691c0.385-0.179,0.769-0.281,1.178-0.281c0.308,0,0.589,0.051,0.896,0.128
		c0.282,0.076,0.537,0.179,0.742,0.281v-2.252c0-0.179-0.025-0.358-0.103-0.512c-0.051-0.128-0.128-0.256-0.256-0.333
		c-0.102-0.076-0.282-0.153-0.486-0.179c-0.204-0.051-0.435-0.077-0.666-0.077v-0.409l2.637-0.153l0.102,0.102v8.7
		c0,0.154,0.025,0.281,0.103,0.385c0.052,0.103,0.129,0.204,0.257,0.281c0.076,0.051,0.204,0.077,0.357,0.103
		c0.153,0,0.307,0.025,0.436,0.025V64.644z M165.191,63.518v-3.762c-0.025-0.128-0.103-0.23-0.179-0.358
		c-0.077-0.127-0.18-0.255-0.281-0.357c-0.129-0.129-0.282-0.205-0.462-0.282c-0.153-0.076-0.357-0.103-0.589-0.103
		c-0.255,0-0.511,0.052-0.716,0.205c-0.23,0.129-0.436,0.333-0.589,0.563c-0.179,0.255-0.307,0.563-0.383,0.946
		c-0.103,0.384-0.153,0.794-0.153,1.254c0,0.358,0.025,0.691,0.102,0.998c0.077,0.282,0.18,0.563,0.358,0.818
		c0.153,0.256,0.357,0.436,0.589,0.589c0.229,0.154,0.511,0.23,0.845,0.23c0.357,0,0.639-0.076,0.869-0.23
		C164.833,63.876,165.038,63.697,165.191,63.518L165.191,63.518z M181.415,55.432c0,0.205-0.052,0.358-0.153,0.486
		c-0.103,0.153-0.256,0.205-0.487,0.205c-0.127,0-0.255-0.026-0.357-0.078c-0.103-0.051-0.179-0.127-0.281-0.229
		c-0.077-0.103-0.153-0.205-0.231-0.333c-0.076-0.127-0.153-0.204-0.204-0.281c-0.281,0-0.512,0.205-0.665,0.589
		c-0.154,0.409-0.256,1.023-0.256,1.894v0.665h1.663v0.614h-1.663v4.657c0,0.154,0.051,0.282,0.102,0.358
		c0.052,0.103,0.154,0.179,0.282,0.23c0.103,0.025,0.23,0.076,0.409,0.102c0.179,0,0.332,0.026,0.461,0.026v0.436h-3.429v-0.436
		c0.102,0,0.204,0,0.307-0.026c0.102,0,0.205-0.025,0.282-0.051c0.128-0.025,0.204-0.103,0.281-0.204
		c0.051-0.103,0.076-0.23,0.076-0.385v-4.708h-1.279v-0.614h1.279v-0.41c0-0.997,0.256-1.79,0.768-2.379
		c0.512-0.614,1.151-0.921,1.92-0.921c0.383,0,0.69,0.076,0.896,0.229C181.313,55.022,181.415,55.202,181.415,55.432L181.415,55.432
		z M189.578,64.669c-0.205,0.077-0.384,0.129-0.538,0.18c-0.153,0.051-0.332,0.051-0.537,0.051c-0.333,0-0.614-0.076-0.818-0.23
		c-0.205-0.153-0.333-0.384-0.385-0.69h-0.051c-0.281,0.307-0.588,0.537-0.896,0.717c-0.332,0.153-0.717,0.23-1.177,0.23
		c-0.487,0-0.896-0.128-1.203-0.436c-0.308-0.281-0.461-0.69-0.461-1.151c0-0.256,0.025-0.486,0.103-0.666
		c0.077-0.204,0.18-0.384,0.308-0.537c0.128-0.128,0.256-0.255,0.435-0.358c0.179-0.103,0.358-0.179,0.513-0.23
		c0.204-0.076,0.588-0.204,1.202-0.409c0.589-0.204,0.998-0.358,1.202-0.486v-0.639c0-0.052,0-0.154-0.025-0.334
		c-0.025-0.153-0.076-0.307-0.153-0.435c-0.103-0.179-0.23-0.308-0.384-0.436c-0.154-0.102-0.384-0.179-0.69-0.179
		c-0.18,0-0.385,0.052-0.563,0.103c-0.153,0.076-0.281,0.153-0.358,0.204c0,0.104,0.025,0.231,0.077,0.41
		c0.025,0.153,0.051,0.307,0.051,0.46c0,0.154-0.076,0.282-0.204,0.41s-0.334,0.179-0.563,0.179c-0.23,0-0.384-0.076-0.486-0.229
		c-0.102-0.153-0.153-0.308-0.153-0.513c0-0.204,0.077-0.383,0.205-0.563c0.153-0.205,0.332-0.358,0.563-0.486
		c0.205-0.128,0.436-0.23,0.717-0.332c0.281-0.077,0.563-0.128,0.818-0.128c0.358,0,0.691,0.025,0.973,0.076
		c0.256,0.052,0.513,0.153,0.742,0.333c0.205,0.153,0.384,0.383,0.512,0.665c0.102,0.256,0.153,0.614,0.153,1.05
		c0,0.64,0,1.177,0,1.663c-0.025,0.485-0.025,0.998-0.025,1.586c0,0.153,0.025,0.308,0.076,0.385
		c0.078,0.102,0.154,0.204,0.282,0.255c0.077,0.052,0.179,0.077,0.307,0.077c0.153,0,0.281,0,0.436,0V64.669z M187.3,61.215
		c-0.383,0.103-0.716,0.204-0.997,0.307s-0.537,0.256-0.769,0.41c-0.229,0.153-0.409,0.307-0.536,0.512
		c-0.128,0.204-0.18,0.461-0.18,0.742c0,0.357,0.103,0.614,0.281,0.793c0.179,0.153,0.435,0.256,0.717,0.256
		c0.307,0,0.588-0.077,0.819-0.23c0.256-0.153,0.435-0.333,0.613-0.537L187.3,61.215z M196.973,61.625
		c0.18,0.153,0.308,0.333,0.41,0.538c0.103,0.204,0.128,0.46,0.128,0.768c0,0.588-0.205,1.074-0.666,1.458
		c-0.435,0.385-1.023,0.563-1.714,0.563c-0.384,0-0.716-0.077-1.05-0.205c-0.307-0.154-0.536-0.281-0.664-0.384l-0.129,0.436h-0.512
		l-0.051-2.253h0.46c0.025,0.18,0.103,0.385,0.205,0.614c0.128,0.23,0.256,0.436,0.409,0.615c0.18,0.179,0.384,0.357,0.615,0.485
		c0.229,0.128,0.511,0.205,0.792,0.205c0.436,0,0.742-0.103,0.973-0.308c0.23-0.179,0.333-0.461,0.333-0.818
		c0-0.18-0.025-0.333-0.103-0.461c-0.076-0.128-0.179-0.256-0.308-0.358c-0.153-0.103-0.332-0.179-0.537-0.256
		c-0.204-0.102-0.435-0.179-0.69-0.256c-0.205-0.051-0.435-0.127-0.691-0.256c-0.256-0.103-0.46-0.23-0.639-0.358
		c-0.18-0.153-0.334-0.332-0.462-0.563c-0.128-0.229-0.179-0.485-0.179-0.792c0-0.513,0.179-0.973,0.589-1.331
		c0.384-0.358,0.896-0.563,1.561-0.563c0.257,0,0.512,0.051,0.768,0.103c0.281,0.076,0.487,0.153,0.641,0.229l0.153-0.357h0.485
		l0.078,2.098h-0.462c-0.076-0.461-0.281-0.845-0.563-1.126c-0.308-0.308-0.69-0.436-1.101-0.436c-0.358,0-0.639,0.077-0.845,0.256
		c-0.204,0.18-0.307,0.41-0.307,0.666c0,0.179,0.025,0.357,0.103,0.486c0.051,0.128,0.153,0.23,0.308,0.332
		c0.128,0.077,0.281,0.18,0.485,0.256c0.205,0.077,0.435,0.153,0.742,0.257c0.281,0.076,0.537,0.179,0.794,0.307
		C196.59,61.343,196.794,61.471,196.973,61.625L196.973,61.625z M208.028,64.773h-3.173v-0.436c0.102,0,0.204,0,0.332-0.026
		c0.103,0,0.204-0.025,0.281-0.051c0.128-0.025,0.23-0.103,0.281-0.204c0.052-0.103,0.077-0.205,0.077-0.385v-3.301
		c0-0.46-0.103-0.818-0.308-1.074c-0.229-0.23-0.485-0.359-0.793-0.359c-0.23,0-0.435,0.026-0.64,0.104
		c-0.179,0.077-0.358,0.153-0.512,0.256c-0.153,0.128-0.256,0.229-0.333,0.332c-0.076,0.103-0.127,0.205-0.179,0.282v3.71
		c0,0.154,0.025,0.256,0.077,0.358c0.076,0.103,0.153,0.179,0.281,0.23c0.102,0.025,0.204,0.076,0.307,0.102
		c0.076,0,0.205,0.026,0.333,0.026v0.436h-3.174v-0.436c0.077,0,0.18,0,0.308-0.026c0.103,0,0.205-0.025,0.256-0.051
		c0.128-0.025,0.23-0.103,0.281-0.204c0.051-0.103,0.103-0.205,0.103-0.385v-7.497c0-0.154-0.052-0.308-0.103-0.461
		c-0.076-0.128-0.153-0.256-0.281-0.332c-0.076-0.052-0.204-0.077-0.409-0.103s-0.358-0.051-0.486-0.051v-0.436l2.406-0.153
		l0.102,0.102v4.504h0.025c0.153-0.127,0.281-0.255,0.384-0.384c0.128-0.103,0.281-0.23,0.461-0.332
		c0.179-0.103,0.358-0.205,0.588-0.256c0.23-0.077,0.487-0.128,0.769-0.128c0.563,0,0.998,0.179,1.305,0.563
		c0.333,0.358,0.486,0.87,0.486,1.562v3.352c0,0.154,0.025,0.282,0.077,0.384c0.051,0.077,0.153,0.153,0.255,0.205
		c0.103,0.051,0.205,0.076,0.282,0.102c0.077,0.026,0.205,0.026,0.333,0.026V64.773z M214.426,64.773h-3.123v-0.436
		c0.103,0,0.206,0,0.308-0.026c0.103,0,0.205-0.025,0.281-0.051c0.103-0.025,0.205-0.103,0.256-0.204
		c0.077-0.103,0.103-0.205,0.103-0.385v-3.966c0-0.153-0.025-0.281-0.103-0.384c-0.051-0.128-0.153-0.204-0.256-0.281
		c-0.076-0.077-0.204-0.104-0.357-0.154c-0.154-0.025-0.308-0.051-0.436-0.051v-0.435l2.277-0.153l0.103,0.102v5.246
		c0,0.153,0.025,0.281,0.077,0.384c0.076,0.103,0.153,0.179,0.281,0.23c0.102,0.025,0.204,0.076,0.281,0.102
		c0.102,0,0.204,0.026,0.308,0.026V64.773z M213.606,55.688c0,0.256-0.077,0.486-0.23,0.665c-0.18,0.18-0.384,0.281-0.614,0.281
		c-0.229,0-0.41-0.102-0.589-0.281c-0.153-0.179-0.229-0.358-0.229-0.589c0-0.255,0.076-0.46,0.229-0.64
		c0.179-0.179,0.359-0.256,0.589-0.256c0.256,0,0.46,0.077,0.614,0.23C213.529,55.279,213.606,55.483,213.606,55.688L213.606,55.688
		z"/>
	<path fill-rule="evenodd" clip-rule="evenodd" fill="#131414" d="M224.021,61.497c0,0.461-0.077,0.896-0.231,1.331
		c-0.127,0.435-0.332,0.818-0.613,1.126c-0.308,0.332-0.64,0.588-1.049,0.768c-0.385,0.179-0.845,0.256-1.331,0.256
		c-0.409,0-0.794-0.077-1.177-0.23c-0.358-0.154-0.691-0.384-0.973-0.665c-0.307-0.307-0.513-0.666-0.691-1.075
		c-0.179-0.436-0.256-0.896-0.256-1.407c0-1.023,0.307-1.843,0.896-2.481c0.59-0.641,1.356-0.973,2.303-0.973
		c0.896,0,1.639,0.307,2.228,0.921C223.714,59.679,224.021,60.473,224.021,61.497L224.021,61.497z M222.665,61.497
		c0-0.307-0.026-0.666-0.103-1.023c-0.077-0.358-0.153-0.666-0.281-0.921c-0.153-0.281-0.333-0.486-0.563-0.666
		c-0.23-0.153-0.511-0.23-0.845-0.23c-0.332,0-0.613,0.077-0.845,0.23c-0.255,0.18-0.435,0.41-0.588,0.691
		c-0.153,0.256-0.229,0.563-0.307,0.921c-0.052,0.332-0.077,0.666-0.077,0.973c0,0.41,0.025,0.818,0.103,1.151
		c0.077,0.358,0.18,0.691,0.333,0.973s0.332,0.486,0.563,0.64c0.205,0.179,0.486,0.256,0.818,0.256c0.563,0,0.998-0.281,1.306-0.794
		C222.512,63.16,222.665,62.444,222.665,61.497L222.665,61.497z M234.591,64.773h-3.174v-0.436c0.077,0,0.205,0,0.308-0.026
		c0.128,0,0.23-0.025,0.307-0.051c0.128-0.025,0.23-0.103,0.281-0.204c0.051-0.103,0.077-0.205,0.077-0.385v-3.301
		c0-0.46-0.103-0.818-0.307-1.074c-0.23-0.23-0.486-0.359-0.794-0.359c-0.23,0-0.436,0.026-0.64,0.104
		c-0.18,0.077-0.358,0.153-0.512,0.256c-0.129,0.102-0.256,0.204-0.333,0.332c-0.076,0.103-0.153,0.205-0.18,0.282v3.71
		c0,0.154,0.026,0.256,0.077,0.358c0.078,0.103,0.153,0.179,0.282,0.23c0.103,0.025,0.204,0.076,0.307,0.102
		c0.103,0,0.205,0.026,0.333,0.026v0.436h-3.2v-0.436c0.103,0,0.23,0,0.334-0.026c0.102,0,0.179-0.025,0.281-0.051
		c0.102-0.025,0.204-0.103,0.255-0.204c0.077-0.103,0.103-0.205,0.103-0.385v-3.966c0-0.153-0.051-0.281-0.103-0.409
		c-0.076-0.128-0.153-0.23-0.255-0.307c-0.103-0.053-0.18-0.104-0.308-0.104c-0.103-0.025-0.23-0.051-0.358-0.051v-0.435
		l2.149-0.153l0.103,0.102v0.896h0.026c0.103-0.102,0.23-0.229,0.384-0.358c0.179-0.153,0.308-0.281,0.461-0.357
		c0.153-0.103,0.357-0.205,0.563-0.256c0.23-0.077,0.487-0.128,0.743-0.128c0.639,0,1.074,0.204,1.381,0.588
		c0.308,0.385,0.461,0.896,0.461,1.536v3.352c0,0.154,0.025,0.282,0.077,0.384c0.051,0.077,0.128,0.153,0.256,0.205
		c0.102,0.051,0.204,0.076,0.281,0.102c0.076,0.026,0.18,0.026,0.333,0.026V64.773z M248.588,55.432
		c0,0.205-0.052,0.358-0.154,0.486c-0.127,0.153-0.281,0.205-0.485,0.205c-0.129,0-0.257-0.026-0.358-0.078
		c-0.103-0.051-0.205-0.127-0.281-0.229c-0.103-0.103-0.18-0.205-0.256-0.333c-0.077-0.127-0.128-0.204-0.179-0.281
		c-0.308,0-0.513,0.205-0.691,0.589c-0.153,0.409-0.23,1.023-0.23,1.894v0.665h1.663v0.614h-1.663v4.657
		c0,0.154,0.025,0.282,0.077,0.358c0.076,0.103,0.153,0.179,0.281,0.23c0.102,0.025,0.256,0.076,0.435,0.102
		c0.154,0,0.308,0.026,0.436,0.026v0.436h-3.404v-0.436c0.103,0,0.205,0,0.308-0.026c0.103,0,0.205-0.025,0.281-0.051
		c0.103-0.025,0.205-0.103,0.256-0.204c0.077-0.103,0.103-0.23,0.103-0.385v-4.708h-1.279v-0.614h1.279v-0.41
		c0-0.997,0.257-1.79,0.768-2.379c0.513-0.614,1.151-0.921,1.919-0.921c0.385,0,0.666,0.076,0.87,0.229
		C248.485,55.022,248.588,55.202,248.588,55.432L248.588,55.432z M254.576,64.773h-3.123v-0.436c0.077,0,0.206,0,0.308-0.026
		c0.103,0,0.205-0.025,0.281-0.051c0.103-0.025,0.205-0.103,0.256-0.204c0.077-0.103,0.103-0.205,0.103-0.385v-3.966
		c0-0.153-0.052-0.281-0.103-0.384c-0.051-0.128-0.153-0.204-0.256-0.281c-0.076-0.077-0.204-0.104-0.357-0.154
		c-0.154-0.025-0.308-0.051-0.436-0.051v-0.435l2.278-0.153l0.102,0.102v5.246c0,0.153,0.025,0.281,0.077,0.384
		c0.076,0.103,0.153,0.179,0.281,0.23c0.102,0.025,0.204,0.076,0.281,0.102c0.102,0,0.205,0.026,0.308,0.026V64.773z
		 M253.757,55.688c0,0.256-0.076,0.486-0.229,0.665c-0.181,0.18-0.385,0.281-0.615,0.281c-0.229,0-0.409-0.102-0.589-0.281
		c-0.153-0.179-0.229-0.358-0.229-0.589c0-0.255,0.076-0.46,0.229-0.64c0.18-0.179,0.359-0.256,0.589-0.256
		c0.256,0,0.461,0.077,0.615,0.23C253.681,55.279,253.757,55.483,253.757,55.688L253.757,55.688z M264.096,64.773h-2.97v-0.436
		c0.18,0,0.358-0.026,0.486-0.052c0.153-0.025,0.205-0.076,0.205-0.179c0-0.025-0.025-0.103-0.052-0.179
		c-0.051-0.077-0.102-0.153-0.127-0.231c-0.128-0.179-0.256-0.383-0.462-0.69c-0.179-0.281-0.408-0.614-0.689-0.998
		c-0.23,0.281-0.436,0.537-0.641,0.819c-0.179,0.256-0.383,0.537-0.588,0.844c-0.026,0.051-0.052,0.104-0.103,0.154
		c-0.026,0.077-0.052,0.128-0.052,0.179c0,0.077,0.077,0.153,0.205,0.23c0.128,0.051,0.308,0.103,0.563,0.128v0.41h-2.404v-0.41
		c0.307-0.077,0.536-0.179,0.716-0.307s0.358-0.281,0.512-0.461c0.128-0.18,0.307-0.409,0.563-0.717
		c0.23-0.308,0.563-0.716,0.947-1.254c-0.231-0.307-0.513-0.69-0.845-1.151c-0.308-0.46-0.589-0.845-0.794-1.151
		c-0.102-0.179-0.23-0.307-0.384-0.41c-0.128-0.103-0.333-0.153-0.588-0.153v-0.435h2.789v0.435c-0.128,0-0.282,0-0.41,0.025
		s-0.204,0.052-0.204,0.128c0,0.025,0,0.078,0.025,0.129s0.076,0.103,0.103,0.153c0.102,0.153,0.255,0.384,0.461,0.69
		c0.204,0.308,0.409,0.64,0.664,0.973c0.153-0.205,0.334-0.461,0.513-0.742c0.229-0.256,0.409-0.537,0.563-0.793
		c0.025-0.025,0.052-0.051,0.077-0.103c0-0.051,0.025-0.102,0.025-0.128c0-0.102-0.077-0.18-0.23-0.23
		c-0.153-0.052-0.307-0.103-0.435-0.128v-0.409h2.379v0.409c-0.332,0.076-0.613,0.179-0.792,0.308
		c-0.18,0.128-0.333,0.256-0.461,0.409c-0.153,0.179-0.333,0.409-0.512,0.665c-0.205,0.256-0.486,0.64-0.845,1.101
		c0.384,0.563,0.716,1.023,0.973,1.382c0.23,0.358,0.485,0.717,0.741,1.1c0.129,0.206,0.282,0.359,0.436,0.461
		c0.153,0.103,0.358,0.18,0.641,0.18V64.773z"/>
</g>
</svg>
