<?xml version="1.0" encoding="utf-8"?>
<!-- Generator: Adobe Illustrator 16.0.0, SVG Export Plug-In . SVG Version: 6.00 Build 0)  -->
<!DOCTYPE svg PUBLIC "-//W3C//DTD SVG 1.1//EN" "http://www.w3.org/Graphics/SVG/1.1/DTD/svg11.dtd">
<svg version="1.1" id="Layer_1" xmlns="http://www.w3.org/2000/svg" xmlns:xlink="http://www.w3.org/1999/xlink" x="0px" y="0px"
	 width="89.991px" height="84.747px" viewBox="0 0 89.991 84.747" enable-background="new 0 0 89.991 84.747" xml:space="preserve">
<g>
	<defs>
		<rect id="SVGID_1_" width="89.991" height="84.747"/>
	</defs>
	<clipPath id="SVGID_2_">
		<use xlink:href="#SVGID_1_"  overflow="visible"/>
	</clipPath>
	<path clip-path="url(#SVGID_2_)" fill="#606060" d="M66.461,27.373h-3.613V23.65C62.848,10.609,52.239,0,39.198,0
		s-23.65,10.609-23.65,23.65v3.723h-3.613C5.371,27.373,0,32.743,0,39.308v33.504c0,6.563,5.371,11.935,11.935,11.935h54.526
		c6.564,0,11.936-5.37,11.936-11.935v-5.366H20.913c-3.673,0-6.679-3.006-6.679-6.68v-9.416c0-3.673,3.006-6.679,6.679-6.679h57.483
		v-5.365C78.396,32.743,73.025,27.373,66.461,27.373 M23.431,23.65c0-8.708,7.059-15.767,15.767-15.767s15.767,7.059,15.767,15.767
		v3.723H23.431V23.65z"/>
	<polygon clip-path="url(#SVGID_2_)" fill="#606060" points="28.525,63.423 28.525,58.249 33.699,58.249 33.699,54.062 
		28.525,54.062 28.525,48.888 24.337,48.888 24.337,54.062 19.164,54.062 19.164,58.249 24.337,58.249 24.337,63.423 	"/>
	<polygon clip-path="url(#SVGID_2_)" fill="#606060" points="47.289,63.423 47.289,58.249 52.463,58.249 52.463,54.062 
		47.289,54.062 47.289,48.888 43.101,48.888 43.101,54.062 37.928,54.062 37.928,58.249 43.101,58.249 43.101,63.423 	"/>
	<polygon clip-path="url(#SVGID_2_)" fill="#606060" points="66.054,63.423 66.054,58.249 71.227,58.249 71.227,54.062 
		66.054,54.062 66.054,48.888 61.865,48.888 61.865,54.062 56.692,54.062 56.692,58.249 61.865,58.249 61.865,63.423 	"/>
	<polygon clip-path="url(#SVGID_2_)" fill="#606060" points="84.818,54.062 84.818,48.888 80.63,48.888 80.63,54.062 75.456,54.062 
		75.456,58.249 80.63,58.249 80.63,63.423 84.818,63.423 84.818,58.249 89.991,58.249 89.991,54.062 	"/>
</g>
</svg>
