<?xml version="1.0" encoding="utf-8"?>
<!-- Generator: Adobe Illustrator 16.0.0, SVG Export Plug-In . SVG Version: 6.00 Build 0)  -->
<!DOCTYPE svg PUBLIC "-//W3C//DTD SVG 1.1//EN" "http://www.w3.org/Graphics/SVG/1.1/DTD/svg11.dtd">
<svg version="1.1" id="Layer_1" xmlns="http://www.w3.org/2000/svg" xmlns:xlink="http://www.w3.org/1999/xlink" x="0px" y="0px"
	 width="90px" height="90px" viewBox="0 0 90 90" enable-background="new 0 0 90 90" xml:space="preserve">
<g>
	<defs>
		<rect id="SVGID_1_" width="90" height="90"/>
	</defs>
	<clipPath id="SVGID_2_">
		<use xlink:href="#SVGID_1_"  overflow="visible"/>
	</clipPath>
	<path clip-path="url(#SVGID_2_)" fill="#606060" d="M64.4,35.5C64.9,24.7,56.2,16,45,16s-19.9,8.7-19.4,19.5C26,46.3,34.7,55,45,55
		S64,46.3,64.4,35.5 M74.2,73.8v-1.7C74.2,64.4,68,58.2,60.3,58.2H29.8c-7.7,0-13.9,6.2-13.9,13.899v1.7C23.3,81.3,33.6,86,45,86
		C56.4,86,66.7,81.3,74.2,73.8 M45,86C22.4,86,4,67.6,4,45C4,22.4,22.4,4,45,4c22.6,0,41,18.4,41,41C86,67.6,67.6,86,45,86 M45,90
		c24.9,0,45-20.1,45-45C90,20.1,69.9,0,45,0C20.1,0,0,20.1,0,45C0,69.9,20.1,90,45,90"/>
</g>
</svg>
