<?xml version="1.0" encoding="utf-8"?>
<!-- Generator: Adobe Illustrator 16.0.0, SVG Export Plug-In . SVG Version: 6.00 Build 0)  -->
<!DOCTYPE svg PUBLIC "-//W3C//DTD SVG 1.1//EN" "http://www.w3.org/Graphics/SVG/1.1/DTD/svg11.dtd">
<svg version="1.1" id="Layer_1" xmlns="http://www.w3.org/2000/svg" xmlns:xlink="http://www.w3.org/1999/xlink" x="0px" y="0px"
	 width="65.08px" height="78.821px" viewBox="0 0 65.08 78.821" enable-background="new 0 0 65.08 78.821" xml:space="preserve">
<g>
	<defs>
		<rect id="SVGID_1_" width="65.08" height="78.821"/>
	</defs>
	<clipPath id="SVGID_2_">
		<use xlink:href="#SVGID_1_"  overflow="visible"/>
	</clipPath>
	<path clip-path="url(#SVGID_2_)" fill="#606060" d="M57.761,6.007h-7.883V2.818C49.878,1.261,48.619,0,47.064,0
		c-1.556,0-2.814,1.261-2.814,2.818v3.189H20.831V2.818C20.831,1.261,19.57,0,18.015,0C16.46,0,15.2,1.261,15.2,2.818v3.189H7.318
		C3.282,6.007,0,9.29,0,13.326v58.178c0,4.037,3.283,7.317,7.318,7.317h50.443c4.035,0,7.319-3.28,7.319-7.317V13.327
		C65.08,9.291,61.796,6.007,57.761,6.007 M59.449,71.504c0,0.931-0.755,1.688-1.688,1.688H7.318c-0.93,0-1.688-0.757-1.688-1.688
		V13.327c0-0.931,0.757-1.687,1.688-1.687H15.2v4.312c0,1.557,1.26,2.815,2.815,2.815c1.555,0,2.816-1.259,2.816-2.815V11.64h23.418
		v4.312c0,1.557,1.26,2.815,2.814,2.815c1.556,0,2.813-1.259,2.813-2.815V11.64h7.883c0.935,0,1.688,0.755,1.688,1.687
		L59.449,71.504L59.449,71.504z"/>
	<path clip-path="url(#SVGID_2_)" fill="#606060" d="M50.911,25.525H14.168c-1.555,0-2.814,1.259-2.814,2.815
		c0,1.554,1.26,2.815,2.814,2.815h36.743c1.556,0,2.813-1.261,2.813-2.815C53.726,26.785,52.467,25.525,50.911,25.525"/>
	<path clip-path="url(#SVGID_2_)" fill="#606060" d="M50.911,37.347H14.168c-1.555,0-2.814,1.262-2.814,2.817
		s1.26,2.815,2.814,2.815h36.743c1.556,0,2.813-1.261,2.813-2.815C53.726,38.609,52.467,37.347,50.911,37.347"/>
	<path clip-path="url(#SVGID_2_)" fill="#606060" d="M50.911,49.17H14.168c-1.555,0-2.814,1.263-2.814,2.814
		c0,1.558,1.26,2.817,2.814,2.817h36.743c1.556,0,2.813-1.261,2.813-2.817C53.726,50.433,52.467,49.17,50.911,49.17"/>
	<path clip-path="url(#SVGID_2_)" fill="#606060" d="M50.911,60.997H14.168c-1.555,0-2.814,1.261-2.814,2.815
		c0,1.556,1.26,2.813,2.814,2.813h36.743c1.556,0,2.813-1.258,2.813-2.813C53.726,62.256,52.467,60.997,50.911,60.997"/>
</g>
</svg>
