<?xml version="1.0" encoding="utf-8"?>
<!-- Generator: Adobe Illustrator 16.0.0, SVG Export Plug-In . SVG Version: 6.00 Build 0)  -->
<!DOCTYPE svg PUBLIC "-//W3C//DTD SVG 1.1//EN" "http://www.w3.org/Graphics/SVG/1.1/DTD/svg11.dtd">
<svg version="1.1" xmlns="http://www.w3.org/2000/svg" xmlns:xlink="http://www.w3.org/1999/xlink" x="0px" y="0px" width="500px"
	 height="500px" viewBox="0 0 500 500" enable-background="new 0 0 500 500" xml:space="preserve">
<g id="Layer_2">
	<g id="Layer_4">
		<path fill="#FF0661" d="M427.5,282.5c-71,84-72,86-183,174l-184-190c-6.627,0-12-5.373-12-12l-39-77l39-100
			c0-6.627,5.373-12,12-12l105-23l86,33c3.254,0,39.192-23.722,74-28c36.073-4.434,71,10.627,71,14l44,12l47,70l-6,80L427.5,282.5z"
			/>
	</g>
</g>
<g id="Layer_3">
</g>
<g id="Capa_1">
	<g>
		<path d="M226.855,462.582c6.22,6.219,14.58,9.686,23.349,9.686c8.666,0,17.23-3.568,23.349-9.686L456.77,279.363
			c27.835-27.834,43.129-64.845,43.23-104.098c0-39.356-15.294-76.366-43.128-104.201c-27.835-27.834-64.743-43.128-104.099-43.128
			c-38.643,0-75.041,14.784-102.671,41.701c-27.732-27.019-64.233-41.905-102.977-41.905c-39.254,0-76.163,15.294-103.997,43.026
			C15.293,98.593,0,135.604,0,174.959c0,39.254,15.396,76.265,43.23,104.1L226.855,462.582z M60.869,88.499
			c23.042-23.042,53.732-35.787,86.358-35.787c32.626,0,63.418,12.745,86.562,35.889l7.545,7.545c2.345,2.345,5.506,3.67,8.871,3.67
			l0,0c3.263,0,6.524-1.325,8.87-3.67l7.341-7.341c23.145-23.145,53.834-35.889,86.563-35.889c32.626,0,63.315,12.745,86.357,35.787
			c23.145,23.145,35.787,53.833,35.787,86.46s-12.744,63.316-35.889,86.46l-183.319,183.32c-2.957,2.956-8.361,2.956-11.42,0
			L60.971,261.42c-23.145-23.145-35.889-53.834-35.889-86.461C25.082,142.333,37.826,111.644,60.869,88.499z"/>
	</g>
</g>
</svg>
