<?xml version="1.0" encoding="utf-8"?>
<!-- Generator: Adobe Illustrator 16.0.0, SVG Export Plug-In . SVG Version: 6.00 Build 0)  -->
<!DOCTYPE svg PUBLIC "-//W3C//DTD SVG 1.1//EN" "http://www.w3.org/Graphics/SVG/1.1/DTD/svg11.dtd">
<svg version="1.1" id="Layer_1" xmlns="http://www.w3.org/2000/svg" xmlns:xlink="http://www.w3.org/1999/xlink" x="0px" y="0px"
	 width="25px" height="25px" viewBox="0 0 25 25" enable-background="new 0 0 25 25" xml:space="preserve">
<g>
	<g>
		<defs>
			<rect id="SVGID_1_" x="0.969" y="0.5" width="24.061" height="24"/>
		</defs>
		<clipPath id="SVGID_2_">
			<use xlink:href="#SVGID_1_"  overflow="visible"/>
		</clipPath>
		<path clip-path="url(#SVGID_2_)" d="M24.952,22.458L22.729,2.136C22.625,1.215,21.798,0.5,20.867,0.5H5.071
			c-0.979,0-1.753,0.715-1.861,1.636L0.991,22.458C0.82,23.599,1.687,24.5,2.852,24.5h20.239
			C24.173,24.5,25.123,23.584,24.952,22.458L24.952,22.458z M23.091,23.477H2.852c-0.44,0-0.926-0.304-0.828-0.921L4.243,2.288
			c0.054-0.46,0.412-0.764,0.828-0.764V1.475h15.801c0.411,0,0.773,0.358,0.827,0.764l2.219,20.322
			C24.007,23.011,23.688,23.477,23.091,23.477L23.091,23.477z M23.091,23.477"/>
	</g>
	<path d="M17.512,3.405c-0.289,0-0.519,0.23-0.519,0.514v4.976c0,2.194-1.803,3.977-4.021,3.977c-2.219,0-4.021-1.783-4.021-3.977
		V3.934c0-0.284-0.235-0.514-0.519-0.514c-0.289,0-0.519,0.23-0.519,0.514v4.961c0,2.762,2.272,5.005,5.064,5.005
		s5.064-2.248,5.064-5.005V3.924C18.036,3.635,17.801,3.405,17.512,3.405L17.512,3.405z M17.512,3.405"/>
</g>
</svg>
