<?xml version="1.0" encoding="utf-8"?>
<!-- Generator: Adobe Illustrator 16.0.0, SVG Export Plug-In . SVG Version: 6.00 Build 0)  -->
<!DOCTYPE svg PUBLIC "-//W3C//DTD SVG 1.1//EN" "http://www.w3.org/Graphics/SVG/1.1/DTD/svg11.dtd">
<svg version="1.1" id="Layer_1" xmlns="http://www.w3.org/2000/svg" xmlns:xlink="http://www.w3.org/1999/xlink" x="0px" y="0px"
	 width="25px" height="25px" viewBox="0 0 25 25" enable-background="new 0 0 25 25" xml:space="preserve">
<g>
	<g>
		<defs>
			<rect id="SVGID_1_" x="1.061" y="1" width="23.938" height="24"/>
		</defs>
		<clipPath id="SVGID_2_">
			<use xlink:href="#SVGID_1_"  overflow="visible"/>
		</clipPath>
		<path clip-path="url(#SVGID_2_)" d="M24.986,11.113l-2.171-6.511c-0.03-0.09-0.103-0.159-0.191-0.186L11.005,1.013
			C10.927,0.988,10.84,1,10.772,1.044L2.131,6.45C2.06,6.495,2.012,6.569,2,6.653l-0.936,6.724
			c-0.018,0.131,0.055,0.257,0.176,0.307l1.813,0.73l0.001,4.685c0,0.112,0.064,0.214,0.166,0.261l11.728,5.388v0.001
			c0.009,0.016,0.02,0.034,0.038,0.052c0.053,0.049,0.122,0.076,0.195,0.076c0.08,0,0.156-0.033,0.209-0.092l7.321-7.873
			c0.049-0.055,0.077-0.123,0.077-0.195v-3.115l2.132-2.197C24.994,11.326,25.019,11.214,24.986,11.113L24.986,11.113z M2.854,6.674
			l8.012-5.012v7.504L2.854,6.674z M13.711,18.705c0.08,0.032,0.172,0.025,0.245-0.016c0.076-0.042,0.129-0.115,0.144-0.2
			l0.765-4.237v9.826L3.626,18.915v-4.271L13.711,18.705z M14.855,11.068l-1.258,6.974L1.663,13.234l0.845-6.069l12.363,3.847
			C14.864,11.03,14.859,11.048,14.855,11.068L14.855,11.068z M21.812,4.775L15.156,10.5l-3.717-1.156V1.736L21.812,4.775z
			 M24.386,11.13l-6.576,6.777l-2.398-6.871l6.951-5.979L24.386,11.13z M15.436,12.847l1.985,5.688
			c0.031,0.093,0.112,0.164,0.209,0.185c0.093,0.021,0.198-0.01,0.267-0.08l4.317-4.447v2.411l-6.778,7.29V12.847z M15.436,12.847"
			/>
	</g>
</g>
</svg>
