<?xml version="1.0" encoding="utf-8"?>
<!-- Generator: Adobe Illustrator 15.0.0, SVG Export Plug-In . SVG Version: 6.00 Build 0)  -->
<!DOCTYPE svg PUBLIC "-//W3C//DTD SVG 1.1//EN" "http://www.w3.org/Graphics/SVG/1.1/DTD/svg11.dtd">
<svg version="1.1" id="Layer_1" xmlns="http://www.w3.org/2000/svg" xmlns:xlink="http://www.w3.org/1999/xlink" x="0px" y="0px"
	 width="841.89px" height="595.28px" viewBox="0 0 841.89 595.28" enable-background="new 0 0 841.89 595.28" xml:space="preserve">
<g>
	<path fill-rule="evenodd" clip-rule="evenodd" fill="#232322" d="M163.656,263.784c0-1.729-0.198-3.232-0.567-4.479
		c-0.396-1.275-1.021-2.296-1.871-3.118c-0.851-0.822-1.984-1.417-3.374-1.814c-1.389-0.397-3.118-0.595-5.159-0.595h-3.203v20.721
		h3.401c2.041,0,3.742-0.255,5.131-0.737c1.389-0.51,2.494-1.19,3.316-2.126c0.851-0.907,1.446-2.012,1.786-3.345
		C163.458,266.958,163.656,265.484,163.656,263.784L163.656,263.784z M149.483,277.418v14.57l6.945,0.879v1.701h-18.397v-1.701
		l5.188-0.879v-38.523l-5.613-0.879v-1.729h16.498c3.062,0,5.613,0.34,7.654,0.992c2.069,0.652,3.713,1.559,4.96,2.721
		c1.219,1.162,2.098,2.551,2.636,4.11c0.51,1.559,0.766,3.231,0.766,5.045c0,1.786-0.255,3.515-0.766,5.159s-1.36,3.118-2.58,4.365
		c-1.19,1.248-2.806,2.268-4.819,3.033c-2.041,0.766-4.535,1.134-7.54,1.134H149.483z"/>
	<path fill-rule="evenodd" clip-rule="evenodd" fill="#232322" d="M235.486,262.99c0-1.757-0.198-3.203-0.624-4.365
		c-0.397-1.19-1.049-2.126-1.928-2.834c-0.907-0.737-2.012-1.248-3.401-1.559c-1.389-0.284-3.062-0.454-5.018-0.454h-5.584v18.708
		h5.783c1.984,0,3.685-0.17,5.045-0.539c1.389-0.369,2.495-0.936,3.345-1.701c0.85-0.766,1.445-1.758,1.814-2.948
		S235.486,264.662,235.486,262.99L235.486,262.99z M218.932,275.406v16.583l6.604,0.879v1.701H207.48v-1.701l5.188-0.879v-38.523
		l-5.613-0.879v-1.729h18.879c3.062,0,5.613,0.255,7.654,0.794c2.069,0.567,3.713,1.332,4.96,2.353s2.126,2.239,2.636,3.657
		c0.51,1.446,0.765,3.062,0.765,4.875c0,1.672-0.227,3.175-0.708,4.479c-0.51,1.304-1.162,2.466-1.984,3.486
		c-0.822,0.992-1.786,1.814-2.863,2.495c-1.105,0.652-2.239,1.162-3.402,1.502l11.849,17.49l4.734,0.879v1.701h-10.488
		l-12.274-19.162H218.932z"/>
	<path fill-rule="evenodd" clip-rule="evenodd" fill="#232322" d="M368.006,294.568v-1.701l6.945-0.879v-38.325h-1.673
		c-2.863,0-5.244,0.057-7.171,0.199c-1.956,0.113-3.316,0.283-4.11,0.454l-0.879,6.803h-2.183v-10.262h38.438v10.262h-2.211
		l-0.879-6.803c-0.397-0.085-0.964-0.17-1.757-0.227c-0.766-0.085-1.644-0.142-2.665-0.198s-2.154-0.085-3.345-0.113
		c-1.219-0.057-2.438-0.057-3.713-0.057h-1.587v38.268l6.945,0.879v1.701H368.006z"/>
	<path fill-rule="evenodd" clip-rule="evenodd" fill="#9E9E9E" d="M526.689,272.684c0-3.855,0.482-7.2,1.417-10.006
		c0.964-2.806,2.325-5.13,4.139-6.945c1.786-1.842,4.025-3.175,6.662-4.053c2.664-0.851,5.697-1.304,9.155-1.304
		c3.316,0,6.293,0.454,8.93,1.304c2.636,0.878,4.875,2.211,6.718,4.053c1.843,1.814,3.26,4.139,4.252,6.945
		c0.964,2.807,1.474,6.151,1.474,10.006c0,3.884-0.51,7.229-1.474,10.063c-0.992,2.835-2.409,5.188-4.252,7.03
		c-1.843,1.842-4.082,3.203-6.718,4.11c-2.637,0.907-5.613,1.361-8.93,1.361c-3.345,0-6.321-0.454-8.957-1.361
		c-2.608-0.907-4.848-2.268-6.689-4.11c-1.843-1.843-3.261-4.195-4.252-7.03C527.2,279.913,526.689,276.568,526.689,272.684
		L526.689,272.684z M533.521,272.684c0,3.033,0.227,5.783,0.68,8.221c0.454,2.466,1.247,4.564,2.324,6.293
		c1.135,1.729,2.608,3.09,4.479,4.025c1.87,0.964,4.224,1.417,7.058,1.417c2.807,0,5.159-0.454,7.03-1.417
		c1.871-0.935,3.373-2.296,4.479-4.025c1.134-1.729,1.899-3.827,2.381-6.293c0.454-2.438,0.652-5.188,0.652-8.221
		c0-3.033-0.198-5.754-0.652-8.192c-0.481-2.438-1.247-4.507-2.381-6.208c-1.105-1.701-2.607-3.005-4.479-3.94
		c-1.871-0.907-4.224-1.361-7.03-1.361c-2.834,0-5.188,0.454-7.058,1.361c-1.871,0.935-3.345,2.239-4.479,3.94
		c-1.077,1.701-1.87,3.77-2.324,6.208C533.748,266.93,533.521,269.651,533.521,272.684L533.521,272.684z"/>
	<polygon fill-rule="evenodd" clip-rule="evenodd" fill="#9E9E9E" points="460.473,294.568 459.338,294.568 443.322,257.009 
		443.322,291.988 449.19,292.867 449.19,294.568 434.309,294.568 434.309,292.867 439.921,291.988 439.921,253.465 434.309,252.586 
		434.309,250.857 447.518,250.857 461.748,284.108 477.253,250.857 489.782,250.857 489.782,252.586 484.17,253.465 484.17,291.988 
		489.782,292.867 489.782,294.568 472.037,294.568 472.037,292.867 477.905,291.988 477.905,257.009 	"/>
	<path fill-rule="evenodd" clip-rule="evenodd" fill="#9E9E9E" d="M643.137,272.401c0-3.203-0.453-5.981-1.332-8.334
		c-0.907-2.324-2.183-4.252-3.827-5.783c-1.672-1.502-3.685-2.636-6.038-3.373c-2.324-0.766-4.96-1.134-7.852-1.134h-5.867v37.729
		c0.68,0.057,1.36,0.085,2.126,0.113c0.765,0,1.559,0.057,2.353,0.085c0.822,0.028,1.615,0.057,2.438,0.057
		c0.794,0.029,1.616,0.029,2.381,0.029c2.778,0,5.131-0.425,7.087-1.248c1.984-0.793,3.6-2.041,4.848-3.628
		c1.247-1.644,2.183-3.657,2.777-6.066C642.825,278.438,643.137,275.632,643.137,272.401L643.137,272.401z M626.214,250.857
		c3.601,0,6.889,0.369,9.808,1.134c2.92,0.766,5.414,1.984,7.483,3.713c2.069,1.729,3.657,3.94,4.763,6.69
		c1.134,2.75,1.672,6.094,1.672,10.063c0,3.572-0.453,6.747-1.36,9.496c-0.907,2.778-2.296,5.103-4.139,6.973
		c-1.842,1.899-4.167,3.345-7.001,4.309c-2.807,0.992-6.123,1.474-9.894,1.474c-1.247,0-2.607,0-4.081,0
		c-1.446-0.028-2.892-0.028-4.31-0.057c-1.417-0.028-2.749-0.028-4.024-0.057c-1.276,0-2.325-0.028-3.175-0.028h-5.613v-1.701
		l5.613-0.879v-38.523l-5.613-0.879v-1.729H626.214z"/>
	<path fill-rule="evenodd" clip-rule="evenodd" fill="#9E9E9E" d="M686.875,292.867l5.613-0.879v-38.523l-5.613-0.879v-1.729h32.769
		v10.488h-2.154l-1.021-7.115c-0.708-0.085-1.559-0.142-2.551-0.199c-0.964-0.085-1.984-0.142-3.005-0.17s-1.984-0.057-2.892-0.057
		c-0.936-0.028-1.615-0.028-2.126-0.028h-7.143v17.093h11.792l1.021-5.188h2.069v13.408h-2.069l-1.021-5.272h-11.792v17.83h8.589
		c1.36,0,2.636-0.028,3.826-0.057c1.191-0.028,2.268-0.085,3.231-0.113c0.964-0.057,1.786-0.085,2.467-0.17
		c0.68-0.057,1.19-0.114,1.502-0.199l1.871-8.079h2.154l-0.624,11.537h-34.895V292.867z"/>
	<path fill-rule="evenodd" clip-rule="evenodd" fill="#232322" d="M286.481,292.867l5.613-0.879v-38.523l-5.613-0.879v-1.729h32.769
		v10.488h-2.126l-1.049-7.115c-0.708-0.085-1.53-0.142-2.522-0.199c-0.992-0.085-2.013-0.142-3.033-0.17s-1.984-0.057-2.892-0.057
		c-0.907-0.028-1.616-0.028-2.126-0.028h-7.143v17.093h11.792l1.021-5.188h2.098v13.408h-2.098l-1.021-5.272h-11.792v17.83h8.617
		c1.361,0,2.608-0.028,3.798-0.057c1.219-0.028,2.268-0.085,3.231-0.113c0.964-0.057,1.786-0.085,2.466-0.17
		c0.68-0.057,1.19-0.114,1.531-0.199l1.843-8.079H322l-0.624,11.537h-34.895V292.867z"/>
	<polygon fill="#232322" points="292.803,243.204 304.255,228.01 315.679,243.204 312.362,243.204 304.255,237.62 296.12,243.204 	
		"/>
</g>
<text transform="matrix(1 0 0 1 210.5234 342.2666)" fill="#222222" font-family="'Georgia'" font-size="28.6005" letter-spacing="4">Your pre-loved fashion fix</text>
</svg>
