<?xml version="1.0" encoding="utf-8"?>
<!-- Generator: Adobe Illustrator 16.0.0, SVG Export Plug-In . SVG Version: 6.00 Build 0)  -->
<!DOCTYPE svg PUBLIC "-//W3C//DTD SVG 1.1//EN" "http://www.w3.org/Graphics/SVG/1.1/DTD/svg11.dtd">
<svg version="1.1" id="Layer_1" xmlns="http://www.w3.org/2000/svg" xmlns:xlink="http://www.w3.org/1999/xlink" x="0px" y="0px"
	 width="165.5px" height="139px" viewBox="0 0 165.5 139" enable-background="new 0 0 165.5 139" xml:space="preserve">
<g>
	<g>
		<defs>
			<rect id="SVGID_1_" width="162" height="139"/>
		</defs>
		<clipPath id="SVGID_2_">
			<use xlink:href="#SVGID_1_"  overflow="visible"/>
		</clipPath>
		<path clip-path="url(#SVGID_2_)" d="M133.836,138.594H19.387C8.695,138.594,0,129.898,0,119.207V39.574
			c0-10.688,8.695-19.383,19.387-19.383h32.644l54.407-20.043c0.609-0.226,1.285-0.191,1.871,0.09
			c0.586,0.281,1.031,0.789,1.238,1.406l2.313,6.992l14.273-4.523c0.629-0.199,1.313-0.133,1.887,0.188
			c0.578,0.316,0.996,0.859,1.164,1.496l3.73,14.39h0.922c10.688,0,19.387,8.699,19.387,19.387v19.941
			c4.629,1.297,8.035,5.555,8.035,10.594v18.566c0,5.039-3.406,9.297-8.035,10.594v19.938
			C153.223,129.898,144.523,138.594,133.836,138.594L133.836,138.594z M19.387,24.992c-8.043,0-14.586,6.543-14.586,14.586v79.629
			c0,8.043,6.543,14.59,14.586,14.59h114.449c8.043,0,14.586-6.547,14.586-14.59V99.676h-42.836
			c-5.758,0-10.438-4.684-10.438-10.438V69.551c0-5.757,4.68-10.438,10.438-10.438h42.836V39.578
			c0-8.043-6.543-14.586-14.586-14.586h-2.727c-0.035,0-0.07,0-0.105,0h-16.996c-0.035,0-0.074,0-0.109,0H52.516
			c-0.039,0-0.075,0-0.114,0H19.387z M99.945,88.672c0,3.422,2.785,6.203,6.203,6.203h44.113c3.418,0,6.199-2.781,6.199-6.203
			V70.109c0-3.418-2.781-6.199-6.199-6.199h-44.113c-3.418,0-6.203,2.781-6.203,6.199V88.672z M115.688,20.191h12.27l-2.785-10.738
			l-11.801,3.742L115.688,20.191z M65.918,20.191h44.711l-2.567-7.762c-0.007-0.019-0.015-0.039-0.022-0.062c0,0,0,0,0-0.004
			l-2.27-6.852L65.918,20.191z M113.953,88.477c-5.012,0-9.086-4.074-9.086-9.082c0-5.012,4.074-9.086,9.086-9.086
			c5.008,0,9.082,4.074,9.082,9.086C123.039,84.402,118.961,88.477,113.953,88.477L113.953,88.477z M113.953,75.105
			c-2.363,0-4.285,1.926-4.285,4.285c0,2.363,1.922,4.285,4.285,4.285c2.358,0,4.285-1.922,4.285-4.285
			C118.238,77.031,116.316,75.105,113.953,75.105L113.953,75.105z M113.953,75.105"/>
	</g>
</g>
</svg>
