<?xml version="1.0" encoding="utf-8"?>
<!-- Generator: Adobe Illustrator 16.0.0, SVG Export Plug-In . SVG Version: 6.00 Build 0)  -->
<!DOCTYPE svg PUBLIC "-//W3C//DTD SVG 1.1//EN" "http://www.w3.org/Graphics/SVG/1.1/DTD/svg11.dtd">
<svg version="1.1" id="Layer_1" xmlns="http://www.w3.org/2000/svg" xmlns:xlink="http://www.w3.org/1999/xlink" x="0px" y="0px"
	 width="19.813px" height="35.395px" viewBox="0 0 19.813 35.395" enable-background="new 0 0 19.813 35.395" xml:space="preserve">
<g>
	<g>
		<defs>
			<rect id="SVGID_1_" x="0.349" y="0.5" width="19.138" height="35"/>
		</defs>
		<clipPath id="SVGID_2_">
			<use xlink:href="#SVGID_1_"  overflow="visible"/>
		</clipPath>
		<path clip-path="url(#SVGID_2_)" d="M17.462,3.148V0.953c0-0.25-0.203-0.453-0.453-0.453H2.724c-0.25,0-0.453,0.203-0.453,0.453
			v2.193C1.8,3.862-0.146,7.412,0.467,16.402c0.669,9.815,1.347,17.377,1.354,17.452c0.015,0.168,0.122,0.313,0.277,0.378
			c0.114,0.047,2.847,1.162,7.768,1.162c1.236,0,2.444-0.071,3.589-0.213V35.18c0.199-0.024,0.365-0.178,0.394-0.386
			c0.008-0.056,0.52-3.764,0.94-7.276c0.13,1.926,0.239,4.311,0.239,6.863c0,0.25,0.203,0.453,0.453,0.453l0,0
			c0.24-0.009,2.122-0.59,2.152-0.602c0.155-0.065,0.262-0.21,0.276-0.378c0.007-0.075,0.686-7.637,1.354-17.452
			C19.877,7.417,17.934,3.867,17.462,3.148L17.462,3.148z M3.177,1.406h13.379v1.576c-0.722,0.127-3.031,0.28-6.689,0.28
			s-5.968-0.153-6.689-0.28V1.406z M18.36,16.341c-0.596,8.734-1.198,15.682-1.327,17.147c-0.224,0.077-0.594,0.194-1.101,0.321
			c-0.037-6.011-0.653-10.958-0.659-11.01c-0.028-0.227-0.222-0.396-0.449-0.396c-0.004,0-0.008,0-0.012,0
			c-0.232,0.006-0.423,0.188-0.44,0.419c-0.238,3.103-1.154,9.891-1.373,11.499c-1.006,0.111-2.058,0.167-3.133,0.167
			c-3.898,0-6.399-0.737-7.168-1.001c-0.129-1.467-0.731-8.413-1.327-17.146C0.826,8.347,2.37,4.815,2.906,3.852
			c0.107,0.022,1.215,0.151,1.883,0.19c1.358,0.081,3.161,0.126,5.078,0.126c1.916,0,3.72-0.045,5.077-0.126
			c0.669-0.04,1.777-0.168,1.886-0.191C17.367,4.801,18.909,8.292,18.36,16.341L18.36,16.341z M18.36,16.341"/>
	</g>
</g>
</svg>
