<?xml version="1.0" encoding="utf-8"?>
<!-- Generator: Adobe Illustrator 16.0.0, SVG Export Plug-In . SVG Version: 6.00 Build 0)  -->
<!DOCTYPE svg PUBLIC "-//W3C//DTD SVG 1.1//EN" "http://www.w3.org/Graphics/SVG/1.1/DTD/svg11.dtd">
<svg version="1.1" id="Layer_1" xmlns="http://www.w3.org/2000/svg" xmlns:xlink="http://www.w3.org/1999/xlink" x="0px" y="0px"
	 width="14.438px" height="35px" viewBox="0 0 14.438 35" enable-background="new 0 0 14.438 35" xml:space="preserve">
<g>
	<g>
		<defs>
			<rect id="SVGID_1_" x="0.27" width="13.881" height="35"/>
		</defs>
		<clipPath id="SVGID_2_">
			<use xlink:href="#SVGID_1_"  overflow="visible"/>
		</clipPath>
		<path clip-path="url(#SVGID_2_)" d="M14.112,6.156c0.03-0.145-0.025-0.294-0.144-0.383c-0.348-0.26-0.73-0.458-1.132-0.592
			l0.723-4.456c0.034-0.207-0.106-0.403-0.314-0.437l-1.353-0.22c-0.1-0.016-0.201,0.008-0.283,0.067s-0.137,0.148-0.153,0.248
			l-0.76,4.68c-0.34,0.073-0.671,0.19-0.986,0.353L7.195,6.714L4.68,5.416c-0.314-0.163-0.646-0.28-0.986-0.353l-0.76-4.68
			c-0.016-0.1-0.072-0.189-0.153-0.248C2.698,0.076,2.597,0.052,2.496,0.068l-1.352,0.22C0.938,0.322,0.797,0.518,0.83,0.725
			l0.723,4.456c-0.4,0.134-0.784,0.332-1.131,0.592C0.303,5.861,0.247,6.011,0.277,6.156l1.156,5.457
			c0.412,1.942,0.323,3.953-0.256,5.814c-0.553,1.777-0.832,3.617-0.832,5.469c0,4.623,1.136,11.038,1.147,11.103
			c0.026,0.149,0.141,0.27,0.29,0.304c1.77,0.404,3.591,0.606,5.412,0.606c1.82,0,3.642-0.202,5.411-0.606
			c0.149-0.034,0.264-0.154,0.29-0.304c0.012-0.064,1.147-6.479,1.147-11.103c0-1.852-0.28-3.691-0.833-5.469
			c-0.578-1.861-0.667-3.872-0.255-5.814L14.112,6.156z M12.146,0.88l0.602,0.098l-0.655,4.031c-0.202-0.027-0.406-0.04-0.61-0.036
			L12.146,0.88z M10.06,6.092c1.032-0.533,2.285-0.468,3.256,0.153l-0.663,3.13c-0.246,1.16-1.138,2.04-2.272,2.242
			c-0.039,0.007-0.078,0.013-0.118,0.019c-1.164,0.166-2.336-0.827-2.686-1.154v-0.49l1.286,0.381
			c0.036,0.011,0.072,0.016,0.108,0.016c0.164,0,0.315-0.107,0.365-0.273c0.06-0.201-0.056-0.413-0.257-0.473L7.576,9.198V8.967
			l1.461-0.473c0.2-0.064,0.31-0.279,0.245-0.479c-0.064-0.2-0.279-0.31-0.479-0.245L7.576,8.167V7.374L10.06,6.092z M1.643,0.978
			L2.243,0.88l0.665,4.092C2.703,4.969,2.499,4.982,2.297,5.009L1.643,0.978z M1.075,6.245c0.97-0.621,2.224-0.686,3.256-0.153
			l2.483,1.282v0.793L5.588,7.77c-0.201-0.065-0.416,0.045-0.48,0.245c-0.064,0.2,0.045,0.415,0.246,0.479l1.461,0.473v0.231
			L5.311,9.644c-0.201,0.06-0.316,0.271-0.256,0.473c0.049,0.166,0.2,0.273,0.365,0.273c0.035,0,0.071-0.005,0.107-0.016
			l1.287-0.381v0.49c-0.351,0.328-1.523,1.32-2.686,1.154c-0.041-0.006-0.08-0.012-0.119-0.019
			c-1.135-0.202-2.025-1.082-2.271-2.241L1.075,6.245z M13.283,22.896c0,4.042-0.885,9.497-1.093,10.72
			c-3.273,0.71-6.718,0.71-9.991,0c-0.207-1.223-1.092-6.678-1.092-10.72c0-1.774,0.268-3.539,0.798-5.242
			c0.605-1.947,0.706-4.045,0.297-6.077c0.47,0.399,1.042,0.678,1.675,0.791c0.047,0.008,0.096,0.016,0.145,0.023
			c0.125,0.018,0.248,0.026,0.371,0.026c1.219,0,2.31-0.817,2.803-1.25c0.542,0.477,1.811,1.418,3.174,1.224
			c0.049-0.007,0.097-0.015,0.145-0.023c0.632-0.113,1.204-0.39,1.674-0.79c-0.409,2.032-0.308,4.13,0.298,6.076
			C13.015,19.357,13.283,21.121,13.283,22.896L13.283,22.896z M13.283,22.896"/>
	</g>
</g>
</svg>
