<?xml version="1.0" encoding="utf-8"?>
<!-- Generator: Adobe Illustrator 16.0.0, SVG Export Plug-In . SVG Version: 6.00 Build 0)  -->
<!DOCTYPE svg PUBLIC "-//W3C//DTD SVG 1.1//EN" "http://www.w3.org/Graphics/SVG/1.1/DTD/svg11.dtd">
<svg version="1.1" id="Layer_1" xmlns="http://www.w3.org/2000/svg" xmlns:xlink="http://www.w3.org/1999/xlink" x="0px" y="0px"
	 width="22.84px" height="35px" viewBox="0 0 22.84 35" enable-background="new 0 0 22.84 35" xml:space="preserve">
<g>
	<g>
		<defs>
			<rect id="SVGID_1_" y="-0.04" width="22.84" height="35"/>
		</defs>
		<clipPath id="SVGID_2_">
			<use xlink:href="#SVGID_1_"  overflow="visible"/>
		</clipPath>
		<path clip-path="url(#SVGID_2_)" d="M22.838,31.478c-1.783-7.897-3.965-12.972-5.107-15.293c-0.568-1.156-0.904-2.395-0.997-3.683
			l-0.001-0.009c-0.013-0.171-0.021-0.488-0.021-0.511c0.025-2.634,1.544-10.637,1.56-10.718c0.03-0.162-0.05-0.325-0.197-0.398
			l-1.621-0.811c-0.11-0.055-0.24-0.051-0.347,0.009C16,0.123,15.93,0.233,15.921,0.355c-0.055,0.706-0.226,1.512-0.415,2.24
			c-1.354,0.112-2.727,0.169-4.082,0.169S8.696,2.708,7.341,2.596C7.116,1.73,6.974,0.965,6.927,0.355
			c-0.01-0.123-0.079-0.232-0.186-0.292C6.634,0.002,6.504-0.001,6.395,0.054L4.773,0.865C4.626,0.938,4.545,1.101,4.576,1.263
			c0.018,0.092,1.756,9.253,1.543,11.166c-0.001,0.006-0.001,0.011-0.001,0.017c-0.043,0.647-0.15,1.292-0.318,1.918
			c-0.168,0.628-0.398,1.241-0.684,1.82c-1.142,2.322-3.324,7.396-5.107,15.293c-0.035,0.153,0.032,0.313,0.167,0.396l3.611,2.211
			c0.097,0.06,0.217,0.07,0.324,0.03c0.106-0.041,0.188-0.129,0.221-0.238l0.243-0.799c1.269,0.257,2.564,0.443,3.86,0.557
			l-0.049,0.415c-0.021,0.177,0.086,0.343,0.256,0.396c0.91,0.285,1.846,0.427,2.782,0.427c0.936,0,1.872-0.142,2.781-0.427
			c0.17-0.053,0.277-0.219,0.256-0.395l-0.049-0.416c1.296-0.113,2.591-0.3,3.86-0.557l0.242,0.8
			c0.033,0.108,0.115,0.196,0.222,0.237c0.043,0.016,0.087,0.023,0.131,0.023c0.067,0,0.134-0.018,0.192-0.054l3.611-2.211
			C22.806,31.79,22.873,31.631,22.838,31.478L22.838,31.478z M6.835,12.729c1.073,0.149,2.151,0.246,3.23,0.29
			c-0.188,0.269-0.298,0.595-0.298,0.947c0,0.33,0.098,0.638,0.265,0.896c-1.175-0.046-2.349-0.153-3.517-0.317
			C6.673,13.952,6.78,13.342,6.835,12.729L6.835,12.729z M12.344,13.966c0,0.507-0.413,0.919-0.92,0.919
			c-0.507,0-0.919-0.413-0.919-0.919c0-0.501,0.402-0.909,0.901-0.919c0.006,0,0.012,0,0.018,0s0.012,0,0.018,0
			C11.94,13.057,12.344,13.465,12.344,13.966L12.344,13.966z M12.781,13.019c1.08-0.044,2.158-0.141,3.231-0.29
			c0.055,0.617,0.161,1.224,0.319,1.816c-1.169,0.164-2.342,0.271-3.518,0.317c0.168-0.259,0.266-0.566,0.266-0.896
			C13.08,13.614,12.97,13.288,12.781,13.019L12.781,13.019z M11.056,4.764C10.015,4.75,8.968,4.676,7.937,4.543
			c-0.084-0.24-0.229-0.669-0.384-1.191c1.164,0.09,2.338,0.139,3.503,0.147V4.764z M11.792,3.5
			c1.165-0.009,2.339-0.058,3.502-0.147c-0.154,0.523-0.3,0.952-0.383,1.191c-1.032,0.132-2.078,0.206-3.119,0.22V3.5z M5.352,1.399
			L6.25,0.95c0.098,0.715,0.287,1.554,0.563,2.503C7.073,4.34,7.31,4.98,7.32,5.008C7.367,5.135,7.48,5.226,7.615,5.245
			c1.258,0.172,2.539,0.26,3.809,0.26s2.551-0.087,3.809-0.26c0.135-0.019,0.248-0.109,0.296-0.237
			c0.036-0.098,0.815-2.212,1.068-4.058l0.898,0.449c-0.272,1.459-1.496,8.124-1.521,10.574c0,0.004,0,0.01-0.001,0.017
			c-3.021,0.425-6.08,0.424-9.102,0C6.849,9.523,5.626,2.863,5.352,1.399L5.352,1.399z M19.082,33.206l-3.326-10.967
			c-0.059-0.195-0.265-0.305-0.459-0.246c-0.195,0.06-0.306,0.266-0.246,0.46l3.007,9.916c-1.228,0.246-2.48,0.424-3.732,0.532
			l-0.998-8.388c-0.023-0.202-0.206-0.347-0.408-0.322c-0.203,0.023-0.347,0.207-0.323,0.409l1.098,9.227
			c-1.491,0.41-3.048,0.41-4.538,0l1.053-8.854c0.024-0.202-0.12-0.385-0.322-0.409s-0.385,0.12-0.409,0.322l-0.954,8.015
			c-1.253-0.108-2.505-0.286-3.733-0.532l3.006-9.916c0.059-0.195-0.051-0.4-0.246-0.46c-0.195-0.059-0.4,0.051-0.459,0.246
			L3.766,33.206l-2.979-1.823c1.755-7.677,3.876-12.605,4.992-14.873c0.198-0.404,0.372-0.822,0.519-1.251
			c1.702,0.244,3.414,0.368,5.126,0.368c1.712,0,3.424-0.124,5.126-0.368c0.146,0.426,0.319,0.843,0.52,1.251
			c1.115,2.268,3.236,7.196,4.991,14.873L19.082,33.206z M19.082,33.206"/>
	</g>
</g>
</svg>
