<?xml version="1.0" encoding="utf-8"?>
<!-- Generator: Adobe Illustrator 16.0.0, SVG Export Plug-In . SVG Version: 6.00 Build 0)  -->
<!DOCTYPE svg PUBLIC "-//W3C//DTD SVG 1.1//EN" "http://www.w3.org/Graphics/SVG/1.1/DTD/svg11.dtd">
<svg version="1.1" id="Layer_1" xmlns="http://www.w3.org/2000/svg" xmlns:xlink="http://www.w3.org/1999/xlink" x="0px" y="0px"
	 width="23.167px" height="45.583px" viewBox="0 0 23.167 45.583" enable-background="new 0 0 23.167 45.583" xml:space="preserve">
<g>
	<path fill="none" stroke="#000000" stroke-width="0.8787" stroke-miterlimit="10" d="M4.693,13.436
		c1.984-2.353,1.616-4.592-0.199-6.774c-0.425-1.333,0-2.268,1.219-2.863c2.381-0.454,4.139-1.077,4.875-1.899
		c0.765-1.163,1.248-0.737,1.644,0.283c1.645,1.701,3.316,3.43,4.961,5.159c0.028,4.479,0.283,8.646,1.219,11.877
		c0.51,2.721,1.077,4.96,1.758,6.775c0.142,1.219-0.454,2.324-1.418,3.345c-0.425,0.822-0.766,1.786-1.021,2.977
		c0.255,1.049-0.68,2.239-2.239,3.458c-0.34,0.511-0.681,1.021-1.021,1.503c0.766,0.566,0.511,1.615,0.34,2.041
		c-0.51,0.623-1.049,1.275-1.559,1.898c0.34,0.879,0,1.361-0.539,1.701c-3.571,2.75-6.633,2.381-9.297-0.481
		c1.531-3.714,4.507-6.095,2.495-13.182c-0.198-0.936-0.142-1.587,0-2.154c-0.737-0.681-0.708-1.673-0.539-2.721
		C4.41,20.126,3.248,15.137,4.693,13.436L4.693,13.436z"/>
	<path fill="none" stroke="#000000" stroke-width="0.8787" stroke-miterlimit="10" d="M11.894,9.836
		c-0.113,0.822-0.227,1.644-0.34,2.438c0.992-0.482,1.616,0.397,1.701,3.345c-0.142,7.824,0.539,14.485,1.502,21.231"/>
	<path fill="none" stroke="#000000" stroke-width="0.8787" stroke-miterlimit="10" d="M11.553,12.359
		c0.68,1.587,1.048,4.394,0.057,5.443c0.085,3.004-1.333,6.009-2.693,9.014c-0.199,2.381,0.368,3.401,1.077,4.139
		c2.098,1.615,3.515,3.798,4.535,6.321"/>
	<path fill="none" stroke="#000000" stroke-width="0.8787" stroke-miterlimit="10" d="M5.26,23.357
		c1.36-4.734,5.868-5.414,6.662-10.148"/>
	<path fill="none" stroke="#000000" stroke-width="0.8787" stroke-miterlimit="10" d="M5.912,27.156
		c1.077-6.35,3.742-6.774,5.726-9.382"/>
	<path fill="none" stroke="#000000" stroke-width="0.8787" stroke-miterlimit="10" d="M14.416,34.299
		c1.56-1.814,3.316-3.827,3.09-5.527c-0.142-1.39,0.964-3.288,2.013-5.159"/>
	<path fill="none" stroke="#000000" stroke-width="0.8787" stroke-miterlimit="10" d="M13.878,30.813
		c1.587-1.814,3.004-3.459,2.777-5.159c-0.142-1.39,0.936-3.289,1.984-5.159"/>
	<path fill="none" stroke="#000000" stroke-width="0.8787" stroke-miterlimit="10" d="M5.005,7.342
		c0.199-1.049,0.596-1.899,1.814-2.211c3.288-0.595,5.188-1.446,5.726-2.58"/>
	<path fill="none" stroke="#000000" stroke-width="0.8787" stroke-miterlimit="10" d="M10.958,0.851
		c-0.482-0.142-1.105-0.085-1.729,0.085C8.293,1.474,6.366,1.814,5.147,1.502c-0.284,0-0.567,0.028-0.822,0.057
		C2.907,1.956,3.248,4.365,3.276,6.52c0.539,0.369,1.049,0.539,1.587,0.595"/>
	<path fill="none" stroke="#000000" stroke-width="0.8787" stroke-miterlimit="10" d="M4.07,40.337
		c3.089,2.438,5.726,2.579,7.767,0.17c0.255-0.341,0.028-0.766,0.708-1.077c1.134-0.511,1.333-2.069,2.013-3.09"/>
</g>
</svg>
