<?xml version="1.0" encoding="utf-8"?>
<!-- Generator: Adobe Illustrator 16.0.0, SVG Export Plug-In . SVG Version: 6.00 Build 0)  -->
<!DOCTYPE svg PUBLIC "-//W3C//DTD SVG 1.1//EN" "http://www.w3.org/Graphics/SVG/1.1/DTD/svg11.dtd">
<svg version="1.1" id="Layer_1" xmlns="http://www.w3.org/2000/svg" xmlns:xlink="http://www.w3.org/1999/xlink" x="0px" y="0px"
	 width="37.5px" height="36.5px" viewBox="0 0 37.5 36.5" enable-background="new 0 0 37.5 36.5" xml:space="preserve">
<g>
	<g>
		<defs>
			<rect id="SVGID_1_" x="0.568" y="0.75" width="36.323" height="35"/>
		</defs>
		<clipPath id="SVGID_2_">
			<use xlink:href="#SVGID_1_"  overflow="visible"/>
		</clipPath>
		<path clip-path="url(#SVGID_2_)" d="M35.4,20.631l0.815,0.248c0.046,0.015,0.094,0.021,0.14,0.021
			c0.207,0,0.398-0.135,0.462-0.342c0.078-0.256-0.065-0.525-0.321-0.603l-1.46-0.445c-0.036-0.125-0.074-0.266-0.115-0.421
			c-0.496-1.87-1.519-5.718-8.062-6.824v-1.011c0-5.792-3.658-10.504-8.156-10.504c-4.497,0-8.156,4.712-8.156,10.504v1.011
			c-6.543,1.107-7.565,4.955-8.062,6.824c-0.042,0.155-0.079,0.296-0.116,0.421l-1.46,0.445c-0.255,0.077-0.398,0.347-0.321,0.603
			C0.653,20.766,0.844,20.9,1.051,20.9c0.047,0,0.094-0.007,0.141-0.021l0.815-0.248c-0.547,1.798-1.293,4.756-1.419,5.438
			c-0.019,0.063-0.018,0.169-0.016,0.188c0,0,0.865,7.297,0.867,7.306c0.308,1.72,1.719,2.173,2.426,2.173h29.678
			c0.708,0,2.119-0.453,2.427-2.173c0.002-0.009,0.866-7.306,0.866-7.306c0.002-0.02-0.004-0.148-0.015-0.188
			C36.693,25.387,35.947,22.429,35.4,20.631L35.4,20.631z M28.148,13.532c4.633,1.258,5.403,4.163,5.839,5.805
			c0.074,0.28,0.139,0.521,0.213,0.727c0.489,1.355,1.29,4.528,1.574,5.738c-0.627,0.15-1.667,0.573-2.645,1.757
			c-1.15,1.393-1.811,1.766-4.981,1.779V13.532z M13.229,11.988v-0.734c0-4.325,2.456-7.844,5.475-7.844
			c3.018,0,5.474,3.519,5.474,7.844v0.734C23.733,11.988,13.694,11.988,13.229,11.988L13.229,11.988z M22.889,12.924v16.414h-8.37
			V12.924C14.543,12.923,22.863,12.923,22.889,12.924L22.889,12.924z M10.224,18.632l1.396,0.934
			c0.083,0.055,0.175,0.081,0.268,0.081c0.143,0,0.269-0.081,0.269-0.081l1.396-0.934v10.706h-3.329V18.632z M13.553,15.668h-0.324
			v-2.713c0.107-0.004,0.215-0.009,0.324-0.013V15.668z M27.183,17.47l-1.664,1.113l-1.664-1.113v-0.837h3.328V17.47z
			 M23.854,15.668v-2.726c0.108,0.004,0.216,0.009,0.323,0.013v2.713H23.854z M23.854,18.632l1.396,0.934
			c0.079,0.053,0.148,0.081,0.268,0.081c0.093,0,0.187-0.026,0.269-0.081l1.396-0.934v10.706h-3.328V18.632z M26.859,13.246
			c0.109,0.02,0.218,0.039,0.323,0.061v2.362h-0.323V13.246z M11.513,11.254c0-5.26,3.226-9.539,7.19-9.539
			c3.965,0,7.191,4.279,7.191,9.539v4.414h-0.751v-4.414c0-4.857-2.889-8.81-6.44-8.81c-3.551,0-6.44,3.952-6.44,8.81v4.414h-0.75
			L11.513,11.254L11.513,11.254z M10.224,13.306c0.106-0.021,0.214-0.041,0.324-0.061v2.422h-0.324V13.306z M13.553,16.633v0.837
			l-1.665,1.113l-1.665-1.113v-0.837H13.553z M3.207,20.063c0.074-0.205,0.138-0.446,0.212-0.727
			c0.436-1.642,1.207-4.547,5.839-5.805v15.806c-3.171-0.014-3.831-0.387-4.981-1.779C3.3,26.375,2.26,25.952,1.632,25.802
			C1.917,24.592,2.717,21.419,3.207,20.063L3.207,20.063z M35.016,33.406c-0.242,1.31-1.354,1.361-1.478,1.363H3.872
			c-0.126-0.002-1.239-0.054-1.48-1.363l-0.783-6.609c0.485,0.155,1.218,0.52,1.925,1.376c1.448,1.753,2.498,2.131,5.912,2.131
			h18.517c3.415,0,4.465-0.378,5.912-2.131c0.716-0.865,1.444-1.229,1.925-1.381L35.016,33.406z M35.016,33.406"/>
	</g>
</g>
</svg>
