<?xml version="1.0" encoding="utf-8"?>
<!-- Generator: Adobe Illustrator 16.0.0, SVG Export Plug-In . SVG Version: 6.00 Build 0)  -->
<!DOCTYPE svg PUBLIC "-//W3C//DTD SVG 1.1//EN" "http://www.w3.org/Graphics/SVG/1.1/DTD/svg11.dtd">
<svg version="1.1" id="Layer_1" xmlns="http://www.w3.org/2000/svg" xmlns:xlink="http://www.w3.org/1999/xlink" x="0px" y="0px"
	 width="12.625px" height="36px" viewBox="0 0 12.625 36" enable-background="new 0 0 12.625 36" xml:space="preserve">
<g>
	<g>
		<defs>
			<rect id="SVGID_1_" x="0.998" y="1" width="10.264" height="35"/>
		</defs>
		<clipPath id="SVGID_2_">
			<use xlink:href="#SVGID_1_"  overflow="visible"/>
		</clipPath>
		<path clip-path="url(#SVGID_2_)" d="M9.695,11.132v-1.24l0.829-3.846c0.023-0.108,0.002-0.221-0.061-0.312
			c-0.062-0.091-0.159-0.153-0.268-0.171c-0.006,0-0.569-0.108-1.571-0.683l1.176-2.854c0.082-0.199-0.007-0.428-0.202-0.52
			L8.593,1.038C8.434,0.964,8.245,1.001,8.126,1.129C7.411,1.9,6.748,2.538,6.142,3.066C5.49,2.498,4.825,1.848,4.159,1.129
			C4.04,1.001,3.851,0.964,3.692,1.038L2.687,1.507c-0.099,0.046-0.175,0.131-0.21,0.234S2.448,1.957,2.497,2.054l1.364,2.705
			C2.735,5.436,2.099,5.562,2.088,5.563c-0.109,0.019-0.206,0.08-0.268,0.171C1.759,5.826,1.737,5.939,1.76,6.047l0.829,3.846v1.24
			c-0.358,0.573-1.756,3.229-1.575,9.587c0.199,7,0.766,14.746,0.771,14.823c0.016,0.211,0.191,0.374,0.402,0.374h3.083
			c0.217,0,0.396-0.172,0.403-0.389c0.128-3.451,0.304-7.827,0.468-11.366c0.164,3.539,0.34,7.915,0.468,11.366
			c0.008,0.217,0.186,0.389,0.402,0.389h3.084c0.211,0,0.387-0.163,0.402-0.374c0.006-0.077,0.572-7.823,0.771-14.823
			C11.451,14.362,10.055,11.706,9.695,11.132L9.695,11.132z M9.655,6.247L8.967,9.446H6.746l1.569-3.813
			C8.903,5.962,9.358,6.147,9.655,6.247L9.655,6.247z M3.405,2.063l0.363-0.17C4.355,2.513,4.94,3.082,5.516,3.59
			C5.168,3.87,4.843,4.111,4.542,4.318L3.405,2.063z M8.517,1.893l0.392,0.183L5.873,9.446H3.318L2.629,6.248
			C3.476,5.964,5.581,5,8.517,1.893L8.517,1.893z M5.738,17.677c-0.066,0.312-0.197,1.623-0.522,9.151
			c-0.153,3.569-0.29,7.126-0.333,8.282h-2.32c-0.115-1.632-0.569-8.308-0.743-14.413c-0.165-5.817,1.037-8.402,1.396-9.039h0.607
			L3.6,13.001c-0.037,0.22,0.112,0.428,0.332,0.464c0.022,0.003,0.045,0.005,0.067,0.005c0.193,0,0.364-0.14,0.397-0.337
			l0.246-1.475h1.097V17.677z M3.396,10.851v-0.598h5.493v0.598H3.396z M10.464,20.697c-0.173,6.105-0.628,12.781-0.743,14.413
			H7.402c-0.044-1.156-0.18-4.713-0.334-8.282c-0.324-7.529-0.456-8.84-0.522-9.151v-6.02h1.098l0.245,1.476
			c0.033,0.197,0.204,0.337,0.397,0.337c0.022,0,0.045-0.002,0.067-0.006c0.22-0.037,0.368-0.244,0.331-0.464l-0.223-1.343h0.605
			C9.429,12.298,10.63,14.884,10.464,20.697L10.464,20.697z M10.464,20.697"/>
	</g>
</g>
</svg>
