<?xml version="1.0" encoding="utf-8"?>
<!-- Generator: Adobe Illustrator 16.0.0, SVG Export Plug-In . SVG Version: 6.00 Build 0)  -->
<!DOCTYPE svg PUBLIC "-//W3C//DTD SVG 1.1//EN" "http://www.w3.org/Graphics/SVG/1.1/DTD/svg11.dtd">
<svg version="1.1" id="Layer_1" xmlns="http://www.w3.org/2000/svg" xmlns:xlink="http://www.w3.org/1999/xlink" x="0px" y="0px"
	 width="20.25px" height="34.934px" viewBox="0 0 20.25 34.934" enable-background="new 0 0 20.25 34.934" xml:space="preserve">
<g>
	<g>
		<defs>
			<rect id="SVGID_1_" width="20.297" height="35"/>
		</defs>
		<clipPath id="SVGID_2_">
			<use xlink:href="#SVGID_1_"  overflow="visible"/>
		</clipPath>
		<path clip-path="url(#SVGID_2_)" d="M20.25,31.192l-0.776-19.151c-0.008-0.212-0.166-0.388-0.376-0.419
			c-0.006-0.001-0.622-0.126-1.191-0.941c-0.838-1.199-1.585-3.845-0.389-9.645c0.046-0.225-0.088-0.449-0.31-0.513l-1.731-0.505
			c-0.125-0.036-0.26-0.016-0.367,0.056c-0.079,0.052-0.138,0.127-0.17,0.214l0,0c-0.137,0.366-1.861,1.02-4.814,1.02
			s-4.678-0.654-4.814-1.02h0C5.279,0.201,5.22,0.125,5.142,0.074C5.033,0.002,4.898-0.019,4.773,0.018L3.042,0.522
			C2.821,0.587,2.687,0.811,2.733,1.036c1.184,5.741,0.459,8.388-0.356,9.598c-0.581,0.862-1.205,0.984-1.224,0.988
			c-0.209,0.031-0.368,0.207-0.376,0.419L0,31.192c0,0.006,0,0.012,0,0.018c0,2.419,5.215,3.724,10.124,3.724
			c0,0,0.001-0.001,0.002-0.001c0,0,0.001,0.001,0.002,0.001c4.907,0,10.123-1.305,10.123-3.724
			C20.25,31.204,20.25,31.198,20.25,31.192L20.25,31.192z M10.125,2.19c1.719,0,3.534-0.23,4.641-0.729
			c-0.53,3.362-2.023,9.398-4.641,9.398c-2.618,0-4.111-6.037-4.641-9.398C6.591,1.959,8.406,2.19,10.125,2.19L10.125,2.19z
			 M16.832,33.112c-1.784,0.604-4.165,0.938-6.704,0.938c-0.001,0-0.001,0-0.002,0s-0.001,0-0.002,0c-2.54,0-4.92-0.333-6.704-0.938
			c-1.582-0.536-2.528-1.243-2.536-1.895l0.763-18.83c0.355-0.143,0.911-0.47,1.422-1.201c0.916-1.312,1.751-4.096,0.61-9.93
			L4.527,1.01C4.659,1.933,4.99,3.952,5.602,5.998c1.048,3.506,2.419,5.421,4.082,5.706v6.073c0,0.244,0.198,0.441,0.442,0.441
			c0.244,0,0.441-0.197,0.441-0.441v-0.659c0.003,0.003,0.005,0.006,0.008,0.009c0.082,0.082,0.195,0.13,0.313,0.13
			c0.116,0,0.23-0.048,0.313-0.13c0.082-0.083,0.129-0.197,0.129-0.312c0-0.117-0.047-0.231-0.129-0.313s-0.196-0.129-0.313-0.129
			c-0.117,0-0.23,0.047-0.313,0.129c-0.003,0.003-0.005,0.006-0.008,0.009v-0.772c0.003,0.002,0.005,0.006,0.008,0.009
			c0.082,0.082,0.196,0.129,0.313,0.129s0.229-0.047,0.312-0.129c0.083-0.083,0.13-0.197,0.13-0.313c0-0.116-0.047-0.23-0.13-0.313
			c-0.081-0.082-0.195-0.129-0.312-0.129s-0.23,0.047-0.313,0.129c-0.003,0.002-0.005,0.006-0.008,0.008v-0.773
			c0.003,0.003,0.005,0.006,0.009,0.009c0.081,0.082,0.195,0.129,0.312,0.129s0.23-0.047,0.313-0.129s0.129-0.196,0.129-0.313
			c0-0.116-0.047-0.23-0.129-0.312c-0.082-0.083-0.196-0.13-0.313-0.13s-0.23,0.047-0.312,0.13c-0.004,0.003-0.006,0.007-0.009,0.01
			v-0.775c0.003,0.003,0.005,0.007,0.009,0.01c0.081,0.082,0.195,0.129,0.312,0.129s0.23-0.047,0.313-0.129
			c0.082-0.083,0.129-0.196,0.129-0.313c0-0.115-0.047-0.229-0.129-0.312s-0.196-0.13-0.313-0.13c-0.117,0-0.23,0.048-0.312,0.13
			c-0.004,0.003-0.006,0.006-0.009,0.009v-0.666c1.663-0.285,3.035-2.2,4.083-5.707c0.611-2.046,0.941-4.065,1.073-4.988l0.85,0.248
			c-1.142,5.834-0.307,8.618,0.609,9.93c0.512,0.731,1.067,1.058,1.423,1.201l0.763,18.83C19.36,31.869,18.413,32.576,16.832,33.112
			L16.832,33.112z M16.832,33.112"/>
	</g>
	<path d="M14.752,16.62c-0.086,0-0.171-0.025-0.245-0.074l-1.478-0.987c-0.122-0.082-0.196-0.22-0.196-0.367v-2.234
		c0-0.244,0.198-0.442,0.442-0.442h2.953c0.244,0,0.442,0.198,0.442,0.442v2.234c0,0.147-0.074,0.285-0.196,0.367l-1.478,0.987
		C14.924,16.595,14.838,16.62,14.752,16.62L14.752,16.62z M13.717,14.955l1.035,0.692l1.035-0.692v-1.557h-2.07V14.955
		L13.717,14.955z M13.717,14.955"/>
</g>
</svg>
